SplineFontDB: 3.0
FontName: StickNoBills
FullName: Stick No Bills
FamilyName: Stick No Bills
OS2StyleName: "regular"
Weight: Regular
Copyright: Copyright (c) 2013 STICK NO BILLS, Copyright (c) 2015 mooniak\n
UComments: "2015-2-15: Created with FontForge (http://fontforge.org) The  Free Font Editor"
Version: 1.10
ItalicAngle: 0
UnderlinePosition: -102
UnderlineWidth: 51
Ascent: 819
Descent: 205
InvalidEm: 0
UFOAscent: 819
UFODescent: -205
LayerCount: 2
Layer: 0 0 "Back" 1
Layer: 1 0 "Fore" 0
PreferredKerning: 4
FSType: 0
OS2Version: 0
OS2_WeightWidthSlopeOnly: 0
OS2_UseTypoMetrics: 0
CreationTime: 1429518268
ModificationTime: 1432575162
PfmFamily: 17
TTFWeight: 400
TTFWidth: 5
LineGap: 94
VLineGap: 0
OS2TypoAscent: 819
OS2TypoAOffset: 0
OS2TypoDescent: -205
OS2TypoDOffset: 0
OS2TypoLinegap: 94
OS2WinAscent: 918
OS2WinAOffset: 0
OS2WinDescent: 205
OS2WinDOffset: 0
HheadAscent: 918
HheadAOffset: 0
HheadDescent: -205
HheadDOffset: 0
OS2CapHeight: 0
OS2XHeight: 0
OS2Vendor: 'PfEd'
OS2UnicodeRanges: 00000002.00000000.00000000.00000000
Lookup: 258 0 0 "'kern' Horizontal Kerning lookup 0" { "'kern' Horizontal Kerning lookup 0-1" [153,15,0] } ['kern' ('DFLT' <'dflt' > 'hani' <'dflt' > 'latn' <'dflt' > ) ]
MarkAttachClasses: 1
DEI: 91125
KernClass2: 7 7 "'kern' Horizontal Kerning lookup 0-1"
 1 A
 7 T Y P F
 9 f r v w y
 1 L
 3 W V
 0 
 7 W V T Y
 12 period comma
 17 a e s o q d c g u
 1 A
 5 w v t
 15 semicolon colon
 0 {} 0 {} 0 {} 0 {} 0 {} 0 {} 0 {} 0 {} -70 {} 61 {} -23 {} 0 {} -68 {} 45 {} 0 {} 16 {} -80 {} -30 {} -100 {} -23 {} -63 {} 0 {} 0 {} -41 {} 0 {} 0 {} 0 {} 0 {} 0 {} -82 {} 0 {} 84 {} 0 {} -77 {} 62 {} 0 {} 0 {} -109 {} -55 {} -130 {} 0 {} -75 {} 0 {} 0 {} 0 {} 0 {} 0 {} 0 {} 0 {}

StartChar: A
Encoding: 65 65 0
GlifName: A_
Width: 516
VWidth: 0
GlyphClass: 2
Flags: HMW
LayerCount: 2
Back
Fore
SplineSet
200 699 m 1
 339 699 l 1
 490 0 l 1
 353 0 l 1
 333 85 l 1
 239 85 l 1
 269 223 l 1
 305 223 l 1
 200 699 l 1
155 582 m 1
 170 582 l 1
 230 302 l 1
 164 0 l 1
 26 0 l 1
 155 582 l 1
EndSplineSet
EndChar

StartChar: AE
Encoding: 198 198 1
GlifName: A_E_
Width: 727
VWidth: 0
GlyphClass: 2
Flags: HMW
LayerCount: 2
Back
Fore
SplineSet
701 141 m 1
 701 0 l 1
 337 0 l 1
 337 148 l 1
 272 148 l 1
 301 268 l 1
 337 268 l 1
 337 560 l 1
 320 560 l 1
 182 0 l 1
 26 0 l 1
 206 700 l 1
 701 700 l 1
 701 560 l 1
 483 560 l 1
 478 560 l 1
 478 418 l 1
 607 418 l 1
 607 277 l 1
 478 277 l 1
 478 141 l 1
 701 141 l 1
EndSplineSet
EndChar

StartChar: Aring
Encoding: 197 197 6
GlifName: A_ring
Width: 516
VWidth: 0
GlyphClass: 2
Flags: HMW
LayerCount: 2
Back
Fore
SplineSet
155 582 m 1
 170 582 l 1
 230 302 l 1
 164 0 l 1
 26 0 l 1
 155 582 l 1
237 765 m 0
 237 747 251 733 269 733 c 0
 287 733 301 747 301 765 c 0
 301 783 287 797 269 797 c 0
 251 797 237 783 237 765 c 0
173 765 m 0
 173 818 216 861 269 861 c 0
 322 861 365 818 365 765 c 0
 365 739 355 716 339 699 c 1
 490 0 l 1
 353 0 l 1
 333 85 l 1
 239 85 l 1
 269 223 l 1
 305 223 l 1
 200 698 l 1
 183 715 173 739 173 765 c 0
EndSplineSet
EndChar

StartChar: B
Encoding: 66 66 8
GlifName: B_
Width: 484
VWidth: 0
GlyphClass: 2
Flags: HMW
LayerCount: 2
Back
Fore
SplineSet
26 700 m 1
 167 700 l 1
 167 0 l 1
 26 0 l 1
 26 700 l 1
221 122 m 1
 308 122 324 179 324 205 c 0
 324 227 311 289 221 289 c 1
 221 411 l 1
 281 411 322 446 322 497 c 0
 322 547 280 576 221 577 c 1
 221 700 l 1
 229 701 237 701 245 701 c 0
 397 701 454 574 454 514 c 2
 454 513 l 2
 453 421 420 378 385 352 c 1
 423 322 458 285 458 201 c 0
 458 199 458 198 458 197 c 0
 457 86 366 -2 249 -2 c 0
 240 -2 230 -1 221 0 c 1
 221 122 l 1
EndSplineSet
EndChar

StartChar: C
Encoding: 67 67 9
GlifName: C_
Width: 494
VWidth: 0
GlyphClass: 2
Flags: HMW
LayerCount: 2
Back
Fore
SplineSet
229 705 m 1
 229 564 l 1
 183 563 173 523 173 518 c 2
 173 181 l 2
 173 176 183 136 229 136 c 1
 229 -5 l 1
 86 -5 32 121 32 181 c 2
 32 518 l 2
 32 578 86 705 229 705 c 1
283 136 m 1
 283 136 315 143 325 166 c 0
 330 178 330 189 330 203 c 2
 330 215 l 1
 468 182 l 1
 468 76 375 -5 283 -5 c 1
 283 136 l 1
283 564 m 1
 283 705 l 1
 375 705 468 612 468 516 c 1
 330 480 l 1
 330 495 l 2
 330 509 330 520 325 532 c 0
 315 555 283 564 283 564 c 1
EndSplineSet
EndChar

StartChar: D
Encoding: 68 68 11
GlifName: D_
Width: 452
VWidth: 0
GlyphClass: 2
Flags: HMW
LayerCount: 2
Back
Fore
SplineSet
32 0 m 1
 32 700 l 1
 173 700 l 1
 173 0 l 1
 32 0 l 1
227 0 m 1
 227 141 l 1
 233 141 282 149 283 197 c 2
 283 503 l 2
 283 508 275 558 227 559 c 1
 227 700 l 1
 370 700 424 566 424 503 c 2
 424 197 l 2
 424 50 287 0 227 0 c 1
EndSplineSet
EndChar

StartChar: E
Encoding: 69 69 12
GlifName: E_
Width: 422
VWidth: 0
GlyphClass: 2
Flags: HMW
LayerCount: 2
Back
Fore
SplineSet
396 141 m 1
 396 0 l 1
 32 0 l 1
 32 700 l 1
 396 700 l 1
 396 560 l 1
 173 560 l 1
 173 418 l 1
 302 418 l 1
 302 277 l 1
 173 277 l 1
 173 141 l 1
 396 141 l 1
EndSplineSet
EndChar

StartChar: EURO
Encoding: 256 8364 13
GlifName: E_U_R_O_
Width: 567
VWidth: 0
GlyphClass: 2
Flags: HMW
LayerCount: 2
Back
Fore
SplineSet
338 2 m 1
 338 142 l 1
 366 151 381 165 381 199 c 2
 380 237 l 1
 517 186 l 1
 517 156 501 102 464 64 c 0
 426 25 387 3 338 2 c 1
338 698 m 1
 387 697 426 675 464 636 c 0
 501 598 517 544 517 514 c 1
 380 463 l 1
 381 501 l 2
 381 535 366 549 338 558 c 1
 338 698 l 1
278 698 m 1
 278 558 l 1
 239 543 236 532 236 488 c 2
 236 436 l 1
 408 436 l 1
 408 376 l 1
 236 376 l 1
 236 317 l 1
 408 317 l 1
 408 258 l 1
 236 258 l 1
 236 202 l 2
 236 155 254 154 278 141 c 1
 278 2 l 1
 197 8 168 45 134 90 c 0
 113 118 101 149 99 182 c 2
 99 258 l 1
 50 258 l 1
 50 317 l 1
 99 317 l 1
 99 377 l 1
 50 377 l 1
 50 436 l 1
 99 436 l 1
 99 496 l 2
 99 540 106 576 134 613 c 0
 172 666 217 696 278 698 c 1
EndSplineSet
EndChar

StartChar: Eth
Encoding: 208 208 18
GlifName: E_th
Width: 501
VWidth: 0
GlyphClass: 2
Flags: HMW
LayerCount: 2
Back
Fore
SplineSet
224 420 m 1
 280 420 l 1
 280 292 l 1
 224 292 l 1
 224 0 l 1
 83 0 l 1
 83 292 l 1
 26 292 l 1
 26 420 l 1
 83 420 l 1
 83 700 l 1
 224 700 l 1
 224 420 l 1
278 0 m 1
 278 141 l 1
 284 141 333 149 334 197 c 2
 334 503 l 2
 334 508 326 558 278 559 c 1
 278 700 l 1
 421 700 475 566 475 503 c 2
 475 197 l 2
 475 50 338 0 278 0 c 1
EndSplineSet
EndChar

StartChar: F
Encoding: 70 70 19
GlifName: F_
Width: 422
VWidth: 0
GlyphClass: 2
Flags: HMW
LayerCount: 2
Back
Fore
SplineSet
302 418 m 1
 302 277 l 1
 173 277 l 1
 173 1 l 1
 32 1 l 1
 32 700 l 1
 396 700 l 1
 396 560 l 1
 173 560 l 1
 173 418 l 1
 302 418 l 1
EndSplineSet
EndChar

StartChar: G
Encoding: 71 71 20
GlifName: G_
Width: 493
VWidth: 0
GlyphClass: 2
Flags: HMW
LayerCount: 2
Back
Fore
SplineSet
222 -5 m 1
 162 -5 26 48 26 192 c 2
 26 524 l 1
 34 589 90 705 222 705 c 1
 222 564 l 1
 176 563 167 513 167 508 c 2
 167 192 l 2
 168 146 217 136 222 136 c 1
 222 -5 l 1
461 353 m 1
 461 176 l 2
 461 95 358 -4 276 -5 c 1
 276 136 l 1
 282 136 319 155 319 190 c 2
 319 223 l 1
 276 223 l 1
 276 353 l 1
 461 353 l 1
276 564 m 1
 276 705 l 1
 369 705 461 612 461 516 c 1
 323 465 l 1
 323 495 l 2
 323 509 323 520 318 532 c 0
 308 555 276 564 276 564 c 1
EndSplineSet
EndChar

StartChar: H
Encoding: 72 72 21
GlifName: H_
Width: 458
VWidth: 0
GlyphClass: 2
Flags: HMW
LayerCount: 2
Back
Fore
SplineSet
285 700 m 1
 426 700 l 1
 426 0 l 1
 285 0 l 1
 285 283 l 1
 256 283 l 1
 256 421 l 1
 285 421 l 1
 285 700 l 1
202 421 m 1
 202 283 l 1
 173 283 l 1
 173 0 l 1
 32 0 l 1
 32 700 l 1
 173 700 l 1
 173 421 l 1
 202 421 l 1
EndSplineSet
EndChar

StartChar: HKD
Encoding: 257 22291 22
GlifName: H_K_D_
Width: 843
VWidth: 0
GlyphClass: 2
Flags: HMW
LayerCount: 2
Back
Fore
SplineSet
126 698 m 1
 169 698 l 1
 169 488 l 1
 126 488 l 1
 126 573 l 1
 117 573 l 1
 117 614 l 1
 126 614 l 1
 126 698 l 1
198 698 m 1
 241 698 l 1
 241 488 l 1
 198 488 l 1
 198 698 l 1
283 698 m 1
 325 698 l 1
 299 611 l 1
 326 488 l 1
 284 488 l 1
 257 611 l 1
 283 698 l 1
101 614 m 1
 101 573 l 1
 92 573 l 1
 92 488 l 1
 50 488 l 1
 50 698 l 1
 92 698 l 1
 92 614 l 1
 101 614 l 1
EndSplineSet
Refer: 105 36 N 1 0 0 1 322 0 2
EndChar

StartChar: I
Encoding: 73 73 23
GlifName: I_
Width: 209
VWidth: 0
GlyphClass: 2
Flags: HMW
LayerCount: 2
Back
Fore
SplineSet
34 700 m 1
 175 700 l 1
 175 0 l 1
 34 0 l 1
 34 700 l 1
EndSplineSet
EndChar

StartChar: J
Encoding: 74 74 28
GlifName: J_
Width: 495
VWidth: 0
GlyphClass: 2
Flags: HMW
LayerCount: 2
Back
Fore
SplineSet
267 -5 m 1
 267 137 l 1
 272 137 322 147 323 193 c 2
 323 700 l 1
 463 700 l 1
 463 193 l 2
 463 49 327 -5 267 -5 c 1
213 -5 m 1
 153 -5 26 54 26 193 c 2
 26 242 l 1
 167 242 l 1
 167 193 l 2
 168 147 208 137 213 137 c 1
 213 -5 l 1
EndSplineSet
EndChar

StartChar: K
Encoding: 75 75 29
GlifName: K_
Width: 475
VWidth: 0
GlyphClass: 2
Flags: HMW
LayerCount: 2
Back
Fore
SplineSet
26 700 m 1
 167 700 l 1
 167 0 l 1
 26 0 l 1
 26 700 l 1
314 700 m 1
 453 700 l 1
 347 341 l 1
 457 0 l 1
 319 0 l 1
 207 341 l 1
 314 700 l 1
EndSplineSet
EndChar

StartChar: L
Encoding: 76 76 30
GlifName: L_
Width: 428
VWidth: 0
GlyphClass: 2
Flags: HMW
LayerCount: 2
Back
Fore
SplineSet
402 139 m 1
 402 0 l 1
 26 0 l 1
 26 700 l 1
 167 700 l 1
 167 139 l 1
 402 139 l 1
EndSplineSet
EndChar

StartChar: Lslash
Encoding: 258 321 31
GlifName: L_slash
Width: 530
VWidth: 0
GlyphClass: 2
Flags: HMW
LayerCount: 2
Back
Fore
SplineSet
348 553 m 1
 420 460 l 1
 270 343 l 1
 270 139 l 1
 505 139 l 1
 505 0 l 1
 129 0 l 1
 129 233 l 1
 98 209 l 1
 26 302 l 1
 129 382 l 1
 129 700 l 1
 270 700 l 1
 270 492 l 1
 348 553 l 1
EndSplineSet
EndChar

StartChar: M
Encoding: 77 77 32
GlifName: M_
Width: 676
VWidth: 0
GlyphClass: 2
Flags: HMW
LayerCount: 2
Back
Fore
SplineSet
503 700 m 1
 644 700 l 1
 644 0 l 1
 503 0 l 1
 503 700 l 1
32 700 m 1
 142 700 l 1
 333 237 l 1
 439 476 l 1
 449 476 l 1
 449 151 l 1
 382 0 l 1
 285 0 l 1
 32 608 l 1
 32 700 l 1
32 0 m 1
 32 444 l 1
 41 444 l 1
 173 127 l 1
 173 0 l 1
 32 0 l 1
EndSplineSet
EndChar

StartChar: N
Encoding: 78 78 33
GlifName: N_
Width: 509
VWidth: 0
GlyphClass: 2
Flags: HMW
LayerCount: 2
Back
Fore
SplineSet
32 700 m 1
 147 700 l 1
 477 168 l 1
 477 0 l 1
 410 0 l 1
 32 608 l 1
 32 700 l 1
477 700 m 1
 477 284 l 1
 469 284 l 1
 336 498 l 1
 336 700 l 1
 477 700 l 1
32 0 m 1
 32 492 l 1
 40 492 l 1
 173 278 l 1
 173 0 l 1
 32 0 l 1
EndSplineSet
EndChar

StartChar: O
Encoding: 79 79 35
GlifName: O_
Width: 508
VWidth: 0
GlyphClass: 2
Flags: HMW
LayerCount: 2
Back
Fore
SplineSet
281 -5 m 1
 281 137 l 1
 286 137 336 149 337 195 c 2
 337 508 l 2
 337 513 327 563 281 564 c 1
 281 705 l 1
 412 705 478 583 478 524 c 2
 478 195 l 2
 478 51 341 -5 281 -5 c 1
226 -5 m 1
 166 -5 30 51 30 195 c 2
 30 524 l 2
 30 584 95 705 227 705 c 1
 227 564 l 1
 181 563 171 513 171 508 c 2
 171 195 l 2
 171 149 221 137 226 137 c 1
 226 -5 l 1
EndSplineSet
EndChar

StartChar: OE
Encoding: 259 338 36
GlifName: O_E_
Width: 724
VWidth: 0
GlyphClass: 2
Flags: HMW
LayerCount: 2
Back
Fore
SplineSet
222 0 m 1
 162 0 26 56 26 200 c 2
 26 519 l 2
 26 579 91 700 223 700 c 1
 223 559 l 1
 177 558 167 508 167 503 c 2
 167 200 l 2
 167 154 217 142 222 142 c 1
 222 0 l 1
698 141 m 1
 698 0 l 1
 277 0 l 1
 277 142 l 1
 334 142 l 1
 334 559 l 1
 277 559 l 1
 277 700 l 1
 698 700 l 1
 698 560 l 1
 475 560 l 1
 475 418 l 1
 604 418 l 1
 604 277 l 1
 475 277 l 1
 475 141 l 1
 698 141 l 1
EndSplineSet
EndChar

StartChar: Oslash
Encoding: 216 216 41
GlifName: O_slash
Width: 662
VWidth: 0
GlyphClass: 2
Flags: HMW
LayerCount: 2
Back
Fore
SplineSet
584 658 m 1
 662 570 l 1
 556 474 l 1
 556 195 l 2
 556 51 419 -5 359 -5 c 1
 359 137 l 1
 364 137 414 149 415 195 c 2
 415 347 l 1
 249 197 l 1
 249 195 l 2
 249 149 299 137 304 137 c 1
 304 -5 l 1
 261 -5 178 24 135 94 c 1
 78 43 l 1
 0 131 l 1
 108 228 l 1
 108 524 l 2
 108 584 173 705 305 705 c 1
 305 564 l 1
 259 563 249 513 249 508 c 2
 249 356 l 1
 415 505 l 1
 415 508 l 2
 415 513 405 563 359 564 c 1
 359 705 l 1
 441 705 497 658 528 607 c 1
 584 658 l 1
EndSplineSet
EndChar

StartChar: P
Encoding: 80 80 43
GlifName: P_
Width: 474
VWidth: 0
GlyphClass: 2
Flags: HMW
LayerCount: 2
Back
Fore
SplineSet
26 700 m 1
 167 700 l 1
 167 0 l 1
 26 0 l 1
 26 700 l 1
221 457 m 1
 254 457 l 2
 261 457 305 458 305 508 c 0
 305 559 263 561 254 561 c 2
 221 561 l 1
 221 700 l 1
 402 700 448 626 448 512 c 0
 448 369 378 318 221 318 c 1
 221 457 l 1
EndSplineSet
EndChar

StartChar: Percent_sign
Encoding: 37 37 44
GlifName: P_ercent_sign
Width: 629
VWidth: 0
GlyphClass: 2
Flags: HMW
LayerCount: 2
Back
Fore
SplineSet
387 117 m 0
 387 177 435 225 495 225 c 0
 555 225 603 177 603 117 c 0
 603 57 555 9 495 9 c 0
 435 9 387 57 387 117 c 0
26 575 m 0
 26 635 74 683 134 683 c 0
 194 683 242 635 242 575 c 0
 242 515 194 467 134 467 c 0
 74 467 26 515 26 575 c 0
160 -23 m 1
 335 716 l 1
 461 716 l 1
 287 -23 l 1
 160 -23 l 1
EndSplineSet
EndChar

StartChar: Q
Encoding: 81 81 45
GlifName: Q_
Width: 500
VWidth: 0
GlyphClass: 2
Flags: HMW
LayerCount: 2
Back
Fore
SplineSet
405 47 m 1
 460 -32 l 1
 348 -107 l 1
 277 -5 l 1
 277 137 l 1
 282 137 332 149 333 195 c 2
 333 508 l 2
 333 513 323 563 277 564 c 1
 277 705 l 1
 408 705 474 583 474 524 c 2
 474 195 l 2
 474 127 444 79 405 47 c 1
222 -5 m 1
 162 -5 26 51 26 195 c 2
 26 524 l 2
 26 584 91 705 223 705 c 1
 223 564 l 1
 177 563 167 513 167 508 c 2
 167 195 l 2
 167 149 217 137 222 137 c 1
 222 -5 l 1
EndSplineSet
EndChar

StartChar: R
Encoding: 82 82 46
GlifName: R_
Width: 495
VWidth: 0
GlyphClass: 2
Flags: HMW
LayerCount: 2
Back
Fore
SplineSet
32 700 m 1
 173 700 l 1
 173 0 l 1
 32 0 l 1
 32 700 l 1
227 411 m 1
 240 411 l 2
 300 411 326 447 326 488 c 0
 326 536 289 567 240 567 c 2
 227 567 l 1
 227 700 l 1
 377 700 453 616 453 496 c 0
 453 428 432 381 386 352 c 1
 422 325 448 266 452 217 c 2
 469 0 l 1
 343 0 l 1
 328 178 l 2
 321 257 298 285 227 286 c 1
 227 411 l 1
EndSplineSet
EndChar

StartChar: S
Encoding: 83 83 47
GlifName: S_
Width: 497
VWidth: 0
GlyphClass: 2
Flags: HMW
LayerCount: 2
Back
Fore
SplineSet
216 -3 m 1
 107 -3 34 103 33 158 c 1
 160 203 l 1
 162 147 216 127 216 127 c 1
 216 -3 l 1
271 700 m 1
 377 700 440 589 446 553 c 1
 316 510 l 1
 311 557 271 568 271 568 c 1
 271 700 l 1
216 700 m 1
 216 568 l 1
 195 562 175 537 175 513 c 0
 175 446 279 434 346 394 c 0
 407 358 474 311 474 209 c 0
 474 96 379 -3 271 -3 c 1
 271 127 l 1
 295 130 333 150 333 203 c 0
 333 278 224 294 164 323 c 0
 93 357 41 403 41 508 c 0
 41 647 165 699 216 700 c 1
EndSplineSet
EndChar

StartChar: T
Encoding: 84 84 49
GlifName: T_
Width: 485
VWidth: 0
GlyphClass: 2
Flags: HMW
LayerCount: 2
Back
Fore
SplineSet
459 700 m 1
 459 562 l 1
 313 562 l 1
 313 0 l 1
 172 0 l 1
 172 562 l 1
 26 562 l 1
 26 700 l 1
 459 700 l 1
EndSplineSet
EndChar

StartChar: Thorn
Encoding: 222 222 50
GlifName: T_horn
Width: 474
VWidth: 0
GlyphClass: 2
Flags: HMW
LayerCount: 2
Back
Fore
SplineSet
26 700 m 1
 167 700 l 1
 167 0 l 1
 26 0 l 1
 26 700 l 1
221 347 m 1
 254 347 l 2
 261 347 305 348 305 398 c 0
 305 449 263 451 254 451 c 2
 221 451 l 1
 221 590 l 1
 402 590 448 516 448 402 c 0
 448 259 378 208 221 208 c 1
 221 347 l 1
EndSplineSet
EndChar

StartChar: TradeMarkSign
Encoding: 261 8482 51
GlifName: T_radeM_arkS_ign
Width: 403
VWidth: 0
GlyphClass: 2
Flags: HMW
LayerCount: 2
Back
Fore
SplineSet
165 700 m 1
 165 653 l 1
 120 653 l 1
 120 484 l 1
 72 484 l 1
 72 653 l 1
 26 653 l 1
 26 700 l 1
 165 700 l 1
330 700 m 1
 377 700 l 1
 377 484 l 1
 330 484 l 1
 330 700 l 1
188 700 m 1
 225 700 l 1
 281 564 l 1
 313 636 l 1
 317 636 l 1
 317 529 l 1
 298 484 l 1
 265 484 l 1
 188 669 l 1
 188 700 l 1
188 484 m 1
 188 628 l 1
 191 628 l 1
 236 522 l 1
 236 484 l 1
 188 484 l 1
EndSplineSet
EndChar

StartChar: U
Encoding: 85 85 52
GlifName: U_
Width: 512
VWidth: 0
GlyphClass: 2
Flags: HMW
LayerCount: 2
Back
Fore
SplineSet
283 -5 m 1
 283 137 l 1
 288 137 338 147 339 193 c 2
 339 700 l 1
 479 700 l 1
 479 193 l 2
 479 48 344 -5 283 -5 c 1
229 -5 m 1
 169 -5 32 49 32 193 c 2
 32 700 l 1
 173 700 l 1
 173 193 l 2
 174 147 224 137 229 137 c 1
 229 -5 l 1
EndSplineSet
EndChar

StartChar: V
Encoding: 86 86 57
GlifName: V_
Width: 508
VWidth: 0
GlyphClass: 2
Flags: HMW
LayerCount: 2
Back
Fore
SplineSet
482 700 m 1
 442 569 401 430 359 290 c 1
 349 290 l 1
 283 514 l 1
 338 700 l 1
 482 700 l 1
26 700 m 1
 170 700 l 1
 329 158 l 1
 276 0 l 1
 229 0 l 1
 26 700 l 1
EndSplineSet
EndChar

StartChar: W
Encoding: 87 87 58
GlifName: W_
Width: 725
VWidth: 0
GlyphClass: 2
Flags: HMW
LayerCount: 2
Back
Fore
SplineSet
699 700 m 1
 576 290 l 1
 566 290 l 1
 500 514 l 1
 555 700 l 1
 699 700 l 1
239 700 m 1
 383 700 l 1
 541 158 l 1
 489 0 l 1
 442 0 l 1
 239 700 l 1
26 700 m 1
 170 700 l 1
 328 158 l 1
 276 0 l 1
 229 0 l 1
 26 700 l 1
EndSplineSet
EndChar

StartChar: X
Encoding: 88 88 59
GlifName: X_
Width: 464
VWidth: 0
GlyphClass: 2
Flags: HMW
LayerCount: 2
Back
Fore
SplineSet
426 700 m 1
 302 361 l 1
 438 0 l 1
 293 0 l 1
 232 167 l 1
 171 0 l 1
 26 0 l 1
 162 361 l 1
 38 700 l 1
 175 700 l 1
 232 548 l 1
 289 700 l 1
 426 700 l 1
EndSplineSet
EndChar

StartChar: Y
Encoding: 89 89 60
GlifName: Y_
Width: 479
VWidth: 0
GlyphClass: 2
Flags: HMW
LayerCount: 2
Back
Fore
SplineSet
269 565 m 1
 308 700 l 1
 453 700 l 1
 344 331 l 1
 335 331 l 1
 269 565 l 1
26 700 m 1
 173 700 l 1
 303 253 l 1
 303 0 l 1
 157 0 l 1
 157 252 l 1
 26 700 l 1
EndSplineSet
EndChar

StartChar: Z
Encoding: 90 90 63
GlifName: Z_
Width: 418
VWidth: 0
GlyphClass: 2
Flags: HMW
LayerCount: 2
Back
Fore
SplineSet
182 144 m 1
 392 144 l 1
 392 0 l 1
 26 0 l 1
 26 141 l 1
 236 560 l 1
 26 560 l 1
 26 700 l 1
 392 700 l 1
 392 563 l 1
 182 144 l 1
EndSplineSet
EndChar

StartChar: a
Encoding: 97 97 65
GlifName: a
Width: 435
VWidth: 0
GlyphClass: 2
Flags: HMW
LayerCount: 2
Back
Fore
SplineSet
181 407 m 1
 178 407 l 2
 155 405 138 390 138 353 c 2
 138 349 l 1
 33 389 l 1
 33 391 l 2
 33 462 110 519 178 519 c 2
 181 519 l 1
 181 407 l 1
228 519 m 1
 231 519 l 2
 334 519 384 424 384 380 c 2
 384 143 l 2
 384 138 386 114 407 114 c 2
 410 114 l 1
 410 1 l 1
 407 1 l 2
 370 1 341 13 321 30 c 1
 298 12 268 1 232 1 c 2
 229 1 l 1
 229 113 l 1
 232 113 l 2
 262 114 268 146 268 149 c 2
 268 227 l 1
 230 205 153 190 139 183 c 0
 133 180 127 173 127 162 c 2
 127 149 l 2
 127 129 137 113 163 113 c 2
 180 113 l 1
 180 1 l 1
 83 1 26 64 26 121 c 2
 26 167 l 2
 26 200 33 233 75 257 c 0
 118 282 268 311 268 351 c 0
 268 355 268 359 268 363 c 0
 268 387 266 404 231 407 c 1
 228 408 l 1
 228 519 l 1
EndSplineSet
EndChar

StartChar: acute
Encoding: 180 180 68
GlifName: acute
Width: 263
VWidth: 0
GlyphClass: 2
Flags: HMW
LayerCount: 2
Back
Fore
SplineSet
141 605 m 1
 50 605 l 1
 87 757 l 1
 214 757 l 1
 141 605 l 1
EndSplineSet
EndChar

StartChar: ae
Encoding: 230 230 70
GlifName: ae
Width: 666
VWidth: 0
GlyphClass: 2
Flags: HMW
LayerCount: 2
Back
Fore
SplineSet
482 402 m 2
 478 402 l 1
 478 516 l 1
 484 516 l 2
 554 516 639 450 639 378 c 2
 639 208 l 1
 384 208 l 1
 384 143 l 2
 384 121 400 109 425 108 c 2
 484 108 l 2
 517 108 536 134 541 157 c 1
 640 120 l 1
 624 55 555 0 484 0 c 2
 425 0 l 2
 380 0 345 9 321 30 c 1
 298 12 268 1 232 1 c 2
 229 1 l 1
 229 113 l 1
 232 113 l 2
 262 114 268 146 268 149 c 2
 268 227 l 1
 230 205 153 190 139 183 c 0
 133 180 127 173 127 162 c 2
 127 149 l 2
 127 129 137 113 163 113 c 2
 180 113 l 1
 180 1 l 1
 83 1 26 53 26 110 c 2
 26 180 l 2
 26 213 33 233 75 257 c 0
 118 282 268 311 268 351 c 2
 268 363 l 2
 268 387 266 407 231 407 c 2
 178 407 l 2
 155 407 138 390 138 353 c 2
 138 349 l 1
 33 389 l 1
 33 391 l 2
 33 462 110 519 178 519 c 2
 233 519 l 2
 273 519 305 504 329 483 c 1
 353 502 385 516 424 516 c 2
 429 516 l 1
 429 400 l 1
 426 400 l 2
 400 400 387 385 384 373 c 2
 384 324 l 1
 525 324 l 1
 525 369 l 2
 525 396 502 402 482 402 c 2
EndSplineSet
EndChar

StartChar: ampersand
Encoding: 38 38 72
GlifName: ampersand
Width: 687
VWidth: 0
GlyphClass: 2
Flags: HMW
LayerCount: 2
Back
Fore
SplineSet
317 700 m 1
 424 681 477 618 477 520 c 0
 477 445 417 383 363 361 c 1
 431 280 l 1
 443 299 451 320 455 345 c 1
 594 345 l 1
 584 274 559 227 520 180 c 1
 661 16 l 1
 464 16 l 1
 417 72 l 1
 393 50 352 26 317 16 c 1
 317 168 l 1
 324 173 325 174 332 180 c 1
 317 198 l 1
 317 486 l 1
 328 495 344 504 344 533 c 0
 344 557 340 570 317 582 c 1
 317 700 l 1
257 578 m 1
 257 578 231 569 231 536 c 0
 231 501 251 495 257 489 c 1
 257 269 l 1
 233 297 l 1
 208 275 183 251 183 204 c 0
 183 160 210 135 257 135 c 1
 257 3 l 1
 107 3 26 93 26 214 c 0
 26 306 81 370 151 404 c 1
 124 424 94 486 94 528 c 0
 94 621 153 681 257 702 c 1
 257 578 l 1
EndSplineSet
EndChar

StartChar: asciicircum
Encoding: 94 94 74
GlifName: asciicircum
Width: 374
VWidth: 0
GlyphClass: 2
Flags: HMW
LayerCount: 2
Back
Fore
SplineSet
27 460 m 1
 176 756 l 1
 264 756 l 1
 413 460 l 1
 290 460 l 1
 219 603 l 1
 149 460 l 1
 27 460 l 1
EndSplineSet
EndChar

StartChar: asciitilde
Encoding: 126 126 75
GlifName: asciitilde
Width: 568
VWidth: 0
GlyphClass: 2
Flags: HMW
LayerCount: 2
Back
Fore
SplineSet
518 281 m 1
 462 247 418 235 381 235 c 0
 289 235 239 308 157 308 c 0
 127 308 92 299 50 272 c 1
 50 405 l 1
 95 431 132 440 163 440 c 0
 250 440 299 367 387 367 c 0
 422 367 464 379 518 412 c 1
 518 281 l 1
EndSplineSet
EndChar

StartChar: asterisk
Encoding: 42 42 76
GlifName: asterisk
Width: 394
VWidth: 0
GlyphClass: 2
Flags: HMW
LayerCount: 2
Back
Fore
SplineSet
231 478 m 1
 160 478 l 1
 160 564 l 1
 92 517 l 1
 51 574 l 1
 138 633 l 1
 50 691 l 1
 92 748 l 1
 160 704 l 1
 160 785 l 1
 231 785 l 1
 231 702 l 1
 302 748 l 1
 344 691 l 1
 256 632 l 1
 343 572 l 1
 302 515 l 1
 231 565 l 1
 231 478 l 1
EndSplineSet
EndChar

StartChar: at
Encoding: 64 64 77
GlifName: at
Width: 803
VWidth: 0
GlyphClass: 2
Flags: HMW
LayerCount: 2
Back
Fore
SplineSet
667 103 m 1
 717 12 l 1
 658 -45 538 -87 423 -87 c 0
 195 -87 16 47 16 309 c 0
 16 533 191 715 448 715 c 0
 610 715 786 612 786 412 c 0
 786 201 654 116 532 116 c 0
 494 116 463 137 453 161 c 1
 439 139 407 116 344 116 c 0
 268 116 205 193 205 289 c 0
 205 444 327 519 409 519 c 0
 473 519 495 493 510 477 c 1
 518 504 l 1
 602 504 l 1
 552 308 l 2
 549 297 545 280 545 266 c 0
 545 249 549 240 563 240 c 0
 598 240 666 280 666 412 c 0
 666 530 549 602 451 602 c 0
 284 602 136 481 136 312 c 0
 136 122 260 22 414 22 c 0
 501 22 587 47 667 103 c 1
EndSplineSet
EndChar

StartChar: b
Encoding: 98 98 79
GlifName: b
Width: 414
VWidth: 0
GlyphClass: 2
Flags: HMW
LayerCount: 2
Back
Fore
SplineSet
270 373 m 2
 270 375 264 397 237 398 c 2
 203 398 l 1
 203 516 l 1
 236 516 l 2
 338 516 387 422 388 377 c 2
 388 141 l 2
 388 97 339 0 236 0 c 2
 203 0 l 1
 203 118 l 1
 236 118 l 2
 264 118 270 142 270 143 c 2
 270 373 l 2
30 0 m 1
 30 699 l 1
 155 699 l 1
 155 0 l 1
 30 0 l 1
EndSplineSet
EndChar

StartChar: backslash
Encoding: 92 92 80
GlifName: backslash
Width: 402
VWidth: 0
GlyphClass: 2
Flags: HMW
LayerCount: 2
Back
Fore
SplineSet
351 -23 m 1
 224 -23 l 1
 50 716 l 1
 176 716 l 1
 351 -23 l 1
EndSplineSet
EndChar

StartChar: bar
Encoding: 124 124 81
GlifName: bar
Width: 205
VWidth: 0
GlyphClass: 2
Flags: HMW
LayerCount: 2
Back
Fore
SplineSet
50 754 m 1
 155 754 l 1
 155 -134 l 1
 50 -134 l 1
 50 754 l 1
EndSplineSet
EndChar

StartChar: braceleft
Encoding: 123 123 82
GlifName: braceleft
Width: 407
VWidth: 0
GlyphClass: 2
Flags: HMW
LayerCount: 2
Back
Fore
SplineSet
307 735 m 1
 307 635 l 1
 239 635 240 591 239 469 c 2
 239 383 l 2
 239 366 219 354 195 348 c 1
 220 340 239 325 239 304 c 2
 239 207 l 2
 239 86 253 61 307 61 c 1
 307 -38 l 1
 301 -38 295 -38 289 -38 c 0
 200 -38 112 -31 112 192 c 2
 112 290 l 2
 112 322 86 329 50 348 c 1
 86 363 111 370 112 408 c 2
 112 504 l 2
 112 715 198 735 307 735 c 1
EndSplineSet
EndChar

StartChar: braceright
Encoding: 125 125 83
GlifName: braceright
Width: 407
VWidth: 0
GlyphClass: 2
Flags: HMW
LayerCount: 2
Back
Fore
SplineSet
100 735 m 1
 209 735 295 715 295 504 c 2
 295 408 l 2
 296 370 321 363 357 348 c 1
 321 329 295 322 295 290 c 2
 295 192 l 2
 295 -31 207 -38 118 -38 c 0
 112 -38 106 -38 100 -38 c 1
 100 61 l 1
 154 61 168 87 168 208 c 2
 168 304 l 2
 168 325 187 340 212 348 c 1
 188 354 168 366 168 383 c 0
 168 384 l 1
 168 469 l 2
 167 591 168 635 100 635 c 1
 100 735 l 1
EndSplineSet
EndChar

StartChar: bracketleft
Encoding: 91 91 84
GlifName: bracketleft
Width: 258
VWidth: 0
GlyphClass: 2
Flags: HMW
LayerCount: 2
Back
Fore
SplineSet
244 739 m 1
 244 629 l 1
 183 629 l 1
 180 74 l 1
 244 74 l 1
 244 -36 l 1
 50 -36 l 1
 50 739 l 1
 244 739 l 1
EndSplineSet
EndChar

StartChar: bracketright
Encoding: 93 93 85
GlifName: bracketright
Width: 258
VWidth: 0
GlyphClass: 2
Flags: HMW
LayerCount: 2
Back
Fore
SplineSet
14 739 m 1
 208 739 l 1
 208 -36 l 1
 14 -36 l 1
 14 74 l 1
 78 74 l 1
 75 629 l 1
 14 629 l 1
 14 739 l 1
EndSplineSet
EndChar

StartChar: breve
Encoding: 264 728 86
GlifName: breve
Width: 244
VWidth: 0
GlyphClass: 2
Flags: HMW
LayerCount: 2
Back
Fore
SplineSet
218 526 m 1
 218 473 175 430 122 430 c 0
 69 430 26 473 26 526 c 1
 90 526 l 1
 90 508 104 494 122 494 c 0
 140 494 154 508 154 526 c 1
 218 526 l 1
EndSplineSet
EndChar

StartChar: brokenbar
Encoding: 166 166 87
GlifName: brokenbar
Width: 222
VWidth: 0
GlyphClass: 2
Flags: HMW
LayerCount: 2
Back
Fore
SplineSet
50 221 m 1
 172 221 l 1
 172 -134 l 1
 50 -134 l 1
 50 221 l 1
50 754 m 1
 172 754 l 1
 172 399 l 1
 50 399 l 1
 50 754 l 1
EndSplineSet
EndChar

StartChar: bullet
Encoding: 265 8226 88
GlifName: bullet
Width: 352
VWidth: 0
GlyphClass: 2
Flags: HMW
LayerCount: 2
Back
Fore
SplineSet
26 344 m 0
 26 428 92 496 176 496 c 0
 260 496 326 428 326 344 c 0
 326 260 260 194 176 194 c 0
 92 194 26 260 26 344 c 0
EndSplineSet
EndChar

StartChar: c
Encoding: 99 99 89
GlifName: c
Width: 418
VWidth: 0
GlyphClass: 2
Flags: HMW
LayerCount: 2
Back
Fore
SplineSet
30 377 m 2
 31 421 80 516 185 516 c 2
 191 516 l 1
 191 400 l 1
 185 400 l 2
 154 400 149 377 149 375 c 2
 149 141 l 2
 149 139 154 115 194 115 c 1
 199 114 l 1
 199 0 l 1
 194 0 l 2
 79 0 30 97 30 141 c 2
 30 377 l 2
243 -1 m 1
 243 116 l 1
 249 116 l 2
 251 116 272 119 277 132 c 0
 281 140 281 146 281 156 c 2
 281 186 l 1
 392 144 l 1
 392 140 l 2
 392 68 323 -1 250 -1 c 2
 243 -1 l 1
266 383 m 0
 261 397 239 399 239 399 c 2
 238 399 237 399 236 399 c 2
 233 399 l 1
 233 516 l 1
 239 516 l 2
 312 516 381 448 381 376 c 2
 381 372 l 1
 270 330 l 1
 270 360 l 2
 270 370 270 375 266 383 c 0
EndSplineSet
EndChar

StartChar: caron
Encoding: 266 711 90
GlifName: caron
Width: 270
VWidth: 0
GlyphClass: 2
Flags: HMW
LayerCount: 2
Back
Fore
SplineSet
26 666 m 1
 107 666 l 1
 134 609 l 1
 162 666 l 1
 244 666 l 1
 167 514 l 1
 101 514 l 1
 26 666 l 1
EndSplineSet
EndChar

StartChar: cedilla
Encoding: 184 184 92
GlifName: cedilla
Width: 219
VWidth: 0
GlyphClass: 2
Flags: HMW
LayerCount: 2
Back
Fore
SplineSet
102 123 m 1
 194 123 l 1
 194 47 153 -36 26 -36 c 1
 26 55 l 1
 62 55 102 68 102 123 c 1
EndSplineSet
EndChar

StartChar: cent
Encoding: 162 162 93
GlifName: cent
Width: 494
VWidth: 0
GlyphClass: 2
Flags: HMW
LayerCount: 2
Back
Fore
SplineSet
283 136 m 1
 283 136 315 143 325 166 c 0
 330 178 330 189 330 203 c 2
 330 215 l 1
 468 182 l 1
 468 104 417 40 354 11 c 1
 354 -48 l 1
 283 -48 l 1
 283 -5 l 1
 283 86 l 1
 283 136 l 1
283 749 m 1
 354 749 l 1
 354 687 l 1
 417 656 468 587 468 516 c 1
 330 480 l 1
 330 495 l 2
 330 509 330 520 325 532 c 0
 315 555 283 564 283 564 c 1
 283 595 l 1
 283 705 l 1
 283 749 l 1
158 749 m 1
 229 749 l 1
 229 705 l 1
 229 595 l 1
 229 564 l 1
 183 563 173 523 173 518 c 2
 173 181 l 2
 173 176 183 136 229 136 c 1
 229 86 l 1
 229 -5 l 1
 229 -48 l 1
 158 -48 l 1
 158 7 l 1
 68 40 32 132 32 181 c 2
 32 518 l 2
 32 567 68 660 158 693 c 1
 158 749 l 1
EndSplineSet
EndChar

StartChar: circumflex
Encoding: 267 710 94
GlifName: circumflex
Width: 270
VWidth: 0
GlyphClass: 2
Flags: HMW
LayerCount: 2
Back
Fore
SplineSet
26 514 m 1
 101 666 l 1
 167 666 l 1
 244 514 l 1
 162 514 l 1
 134 571 l 1
 107 514 l 1
 26 514 l 1
EndSplineSet
EndChar

StartChar: colon
Encoding: 58 58 95
GlifName: colon
Width: 250
VWidth: 0
GlyphClass: 2
Flags: HMW
LayerCount: 2
Back
Fore
SplineSet
50 360 m 0
 50 402 83 436 125 436 c 0
 167 436 200 402 200 360 c 0
 200 318 167 285 125 285 c 0
 83 285 50 318 50 360 c 0
50 70 m 0
 50 112 83 146 125 146 c 0
 167 146 200 112 200 70 c 0
 200 28 167 -5 125 -5 c 0
 83 -5 50 28 50 70 c 0
EndSplineSet
EndChar

StartChar: comma
Encoding: 44 44 96
GlifName: comma
Width: 265
VWidth: 0
GlyphClass: 2
Flags: HMW
LayerCount: 2
Back
Fore
SplineSet
178 -23 m 1
 51 -23 l 1
 88 129 l 1
 215 129 l 1
 178 -23 l 1
EndSplineSet
EndChar

StartChar: copyright
Encoding: 169 169 97
GlifName: copyright
Width: 859
VWidth: 0
GlyphClass: 2
Flags: HMW
LayerCount: 2
Back
Fore
SplineSet
447 44 m 1
 593 51 717 179 720 332 c 0
 720 334 720 337 720 339 c 0
 720 516 576 635 447 636 c 1
 447 726 l 1
 595 725 809 589 809 339 c 0
 809 335 809 331 809 327 c 0
 803 104 619 -43 447 -49 c 1
 447 44 l 1
412 566 m 1
 412 476 l 1
 383 476 377 450 377 447 c 2
 377 231 l 2
 377 228 383 203 412 203 c 1
 412 112 l 1
 321 112 287 193 287 231 c 2
 287 447 l 2
 287 485 321 566 412 566 c 1
447 201 m 1
 447 201 468 207 474 222 c 0
 477 229 477 236 477 245 c 2
 477 264 l 1
 565 232 l 1
 565 171 506 112 447 112 c 1
 447 201 l 1
447 476 m 1
 447 566 l 1
 506 566 565 507 565 446 c 1
 477 413 l 1
 477 432 l 2
 477 441 477 448 474 456 c 0
 468 470 447 476 447 476 c 1
412 44 m 1
 412 -49 l 1
 240 -43 56 104 50 327 c 0
 50 331 50 335 50 339 c 0
 50 589 264 725 412 726 c 1
 412 636 l 1
 283 635 139 516 139 339 c 0
 139 337 139 334 139 332 c 0
 142 179 266 51 412 44 c 1
EndSplineSet
EndChar

StartChar: currency
Encoding: 164 164 98
GlifName: currency
Width: 656
VWidth: 0
GlyphClass: 2
Flags: HMW
LayerCount: 2
Back
Fore
SplineSet
50 540 m 1
 122 622 l 1
 198 555 l 1
 223 578 259 595 304 595 c 2
 310 595 l 1
 310 477 l 1
 304 477 l 2
 271 477 266 453 266 452 c 2
 266 276 l 2
 266 273 274 251 304 251 c 2
 310 251 l 1
 310 133 l 1
 304 133 l 2
 258 133 222 151 197 175 c 1
 122 109 l 1
 51 190 l 1
 146 275 l 1
 146 455 l 1
 146 455 146 455 146 456 c 2
 50 540 l 1
351 477 m 1
 351 595 l 1
 357 595 l 2
 400 595 434 578 459 555 c 1
 534 622 l 1
 606 540 l 1
 510 456 l 2
 510 455 l 1
 510 275 l 1
 605 190 l 1
 534 109 l 1
 460 174 l 1
 435 150 401 133 357 133 c 2
 351 133 l 1
 351 247 l 1
 357 247 l 2
 388 248 393 272 393 274 c 2
 393 451 l 2
 393 454 387 477 357 477 c 2
 351 477 l 1
EndSplineSet
EndChar

StartChar: d
Encoding: 100 100 99
GlifName: d
Width: 414
VWidth: 0
GlyphClass: 2
Flags: HMW
LayerCount: 2
Back
Fore
SplineSet
384 0 m 1
 258 0 l 1
 258 698 l 1
 384 698 l 1
 384 0 l 1
180 516 m 2
 210 516 l 1
 210 398 l 1
 180 398 l 2
 153 397 148 375 148 373 c 2
 148 143 l 2
 148 141 154 118 182 118 c 2
 210 118 l 1
 210 0 l 1
 182 0 l 2
 78 0 30 97 30 141 c 2
 30 377 l 2
 31 422 79 516 180 516 c 2
EndSplineSet
EndChar

StartChar: dagger
Encoding: 268 8224 100
GlifName: dagger
Width: 453
VWidth: 0
GlyphClass: 2
Flags: HMW
LayerCount: 2
Back
Fore
SplineSet
427 577 m 1
 427 450 l 1
 297 450 l 1
 297 -56 l 1
 156 -56 l 1
 156 450 l 1
 26 450 l 1
 26 577 l 1
 156 577 l 1
 156 764 l 1
 297 764 l 1
 297 577 l 1
 427 577 l 1
EndSplineSet
EndChar

StartChar: daggerdbl
Encoding: 269 8225 101
GlifName: daggerdbl
Width: 453
VWidth: 0
GlyphClass: 2
Flags: HMW
LayerCount: 2
Back
Fore
SplineSet
156 764 m 1
 297 764 l 1
 297 577 l 1
 427 577 l 1
 427 450 l 1
 297 450 l 1
 297 258 l 1
 427 258 l 1
 427 131 l 1
 297 131 l 1
 297 -56 l 1
 156 -56 l 1
 156 131 l 1
 26 131 l 1
 26 258 l 1
 156 258 l 1
 156 450 l 1
 26 450 l 1
 26 577 l 1
 156 577 l 1
 156 764 l 1
EndSplineSet
EndChar

StartChar: degree
Encoding: 176 176 102
GlifName: degree
Width: 282
VWidth: 0
GlyphClass: 2
Flags: HMW
LayerCount: 2
Back
Fore
SplineSet
25 583 m 0
 25 647 77 698 140 698 c 0
 204 698 256 647 256 583 c 0
 256 520 204 468 140 468 c 0
 77 468 25 520 25 583 c 0
102 583 m 0
 102 562 119 545 140 545 c 0
 162 545 179 562 179 583 c 0
 179 605 162 622 140 622 c 0
 119 622 102 605 102 583 c 0
EndSplineSet
EndChar

StartChar: dieresis
Encoding: 168 168 103
GlifName: dieresis
Width: 320
VWidth: 0
GlyphClass: 2
Flags: HMW
LayerCount: 2
Back
Fore
SplineSet
0 678 m 0
 0 720 33 754 75 754 c 0
 117 754 150 720 150 678 c 0
 150 636 117 603 75 603 c 0
 33 603 0 636 0 678 c 0
170 678 m 0
 170 720 203 754 245 754 c 0
 287 754 320 720 320 678 c 0
 320 636 287 603 245 603 c 0
 203 603 170 636 170 678 c 0
EndSplineSet
EndChar

StartChar: divide
Encoding: 247 247 104
GlifName: divide
Width: 650
VWidth: 0
GlyphClass: 2
Flags: HMW
LayerCount: 2
Back
Fore
SplineSet
550 355 m 1
 550 228 l 1
 100 228 l 1
 100 355 l 1
 550 355 l 1
EndSplineSet
Refer: 175 46 N 1 0 0 1 196 415 2
Refer: 175 46 N 1 0 0 1 196 62 2
EndChar

StartChar: dollar
Encoding: 36 36 105
GlifName: dollar
Width: 501
VWidth: 0
GlyphClass: 2
Flags: HMW
LayerCount: 2
Back
Fore
SplineSet
213 -47 m 1
 142 -47 l 1
 142 13 l 1
 73 45 31 116 30 158 c 1
 157 203 l 1
 159 147 213 127 213 127 c 1
 213 -47 l 1
339 682 m 1
 402 649 438 580 443 553 c 1
 313 510 l 1
 308 557 268 568 268 568 c 1
 268 750 l 1
 339 750 l 1
 339 682 l 1
213 750 m 1
 213 568 l 1
 192 562 172 537 172 513 c 0
 172 486 189 469 213 454 c 1
 213 302 l 1
 194 309 176 316 161 323 c 0
 90 357 38 403 38 508 c 0
 38 599 91 652 142 679 c 1
 142 750 l 1
 213 750 l 1
268 428 m 1
 294 418 320 407 343 394 c 0
 404 358 471 311 471 209 c 0
 471 122 414 44 339 12 c 1
 339 -47 l 1
 268 -47 l 1
 268 -3 l 1
 268 127 l 1
 292 130 330 150 330 203 c 0
 330 241 303 263 268 280 c 1
 268 428 l 1
EndSplineSet
EndChar

StartChar: dotaccent
Encoding: 270 729 106
GlifName: dotaccent
Width: 202
VWidth: 0
GlyphClass: 2
Flags: HMW
LayerCount: 2
Back
Fore
SplineSet
26 678 m 0
 26 720 59 754 101 754 c 0
 143 754 176 720 176 678 c 0
 176 636 143 603 101 603 c 0
 59 603 26 636 26 678 c 0
EndSplineSet
EndChar

StartChar: dotlessi
Encoding: 271 305 107
GlifName: dotlessi
Width: 174
VWidth: 0
GlyphClass: 2
Flags: HMW
LayerCount: 2
Back
Fore
SplineSet
148 0 m 1
 26 0 l 1
 26 516 l 1
 148 516 l 1
 148 0 l 1
EndSplineSet
EndChar

StartChar: e
Encoding: 101 101 108
GlifName: e
Width: 424
VWidth: 0
GlyphClass: 2
Flags: HMW
LayerCount: 2
Back
Fore
SplineSet
236 0 m 1
 236 111 l 1
 242 111 l 2
 273 113 294 132 298 153 c 2
 299 157 l 1
 398 120 l 1
 397 118 l 1
 382 54 312 0 242 0 c 2
 236 0 l 1
240 402 m 2
 236 402 l 1
 236 516 l 1
 242 516 l 2
 312 516 397 450 397 378 c 2
 397 208 l 1
 148 208 l 1
 148 141 l 2
 148 138 155 109 183 108 c 2
 188 108 l 1
 188 0 l 1
 183 0 l 2
 79 0 26 96 26 141 c 2
 26 377 l 2
 27 422 80 516 182 516 c 2
 187 516 l 1
 187 400 l 1
 184 400 l 2
 155 400 148 380 148 369 c 2
 148 324 l 1
 283 324 l 1
 283 369 l 2
 283 396 260 402 240 402 c 2
EndSplineSet
EndChar

StartChar: eight
Encoding: 56 56 113
GlifName: eight
Width: 486
VWidth: 0
GlyphClass: 2
Flags: HMW
LayerCount: 2
Back
Fore
SplineSet
212 125 m 1
 211 0 l 1
 210 0 l 2
 170 0 26 53 26 199 c 0
 26 269 63 330 91 349 c 1
 77 352 33 415 33 499 c 0
 33 619 144 698 214 698 c 1
 214 571 l 1
 196 568 157 551 157 497 c 0
 157 446 177 424 213 413 c 1
 213 283 l 1
 181 274 154 251 154 201 c 0
 154 165 179 134 212 125 c 1
274 125 m 1
 307 134 332 165 332 201 c 0
 332 251 305 274 273 283 c 1
 273 413 l 1
 309 424 329 446 329 497 c 0
 329 551 290 568 272 571 c 1
 272 698 l 1
 342 698 452 619 452 499 c 0
 452 415 409 352 395 349 c 1
 423 330 460 269 460 199 c 0
 460 53 316 0 276 0 c 2
 275 0 l 1
 274 125 l 1
EndSplineSet
EndChar

StartChar: emdash
Encoding: 272 8212 114
GlifName: emdash
Width: 906
VWidth: 0
GlyphClass: 2
Flags: HMW
LayerCount: 2
Back
Fore
SplineSet
880 357 m 1
 880 230 l 1
 26 230 l 1
 26 357 l 1
 880 357 l 1
EndSplineSet
EndChar

StartChar: endash
Encoding: 273 8211 115
GlifName: endash
Width: 532
VWidth: 0
GlyphClass: 2
Flags: HMW
LayerCount: 2
Back
Fore
SplineSet
506 357 m 1
 506 230 l 1
 26 230 l 1
 26 357 l 1
 506 357 l 1
EndSplineSet
EndChar

StartChar: equal
Encoding: 61 61 116
GlifName: equal
Width: 418
VWidth: 0
GlyphClass: 2
Flags: HMW
LayerCount: 2
Back
Fore
SplineSet
368 452 m 1
 368 325 l 1
 50 325 l 1
 50 452 l 1
 368 452 l 1
368 258 m 1
 368 131 l 1
 50 131 l 1
 50 258 l 1
 368 258 l 1
EndSplineSet
EndChar

StartChar: eth
Encoding: 240 240 117
GlifName: eth
Width: 420
VWidth: 0
GlyphClass: 2
Flags: HMW
LayerCount: 2
Back
Fore
SplineSet
28 376 m 2
 28 421 79 516 186 516 c 2
 192 516 l 1
 192 398 l 1
 186 398 l 2
 153 398 148 373 148 363 c 2
 148 154 l 2
 148 135 156 117 186 117 c 2
 192 117 l 1
 192 -1 l 1
 186 -1 l 2
 78 -1 28 97 28 141 c 2
 28 376 l 2
267 558 m 1
 210 541 l 1
 192 598 l 1
 242 614 l 1
 230 627 214 637 192 647 c 1
 192 714 l 1
 250 703 297 679 330 641 c 1
 380 657 l 1
 398 599 l 1
 364 588 l 1
 383 548 392 500 392 442 c 2
 392 376 l 1
 392 364 l 1
 392 141 l 2
 392 96 343 -1 239 -1 c 2
 233 -1 l 1
 233 117 l 1
 239 117 l 2
 270 118 275 141 275 152 c 2
 275 363 l 2
 275 380 269 398 239 398 c 2
 233 398 l 1
 233 516 l 1
 239 516 l 2
 251 516 262 515 273 512 c 1
 271 530 270 545 267 558 c 1
EndSplineSet
EndChar

StartChar: exclam
Encoding: 33 33 118
GlifName: exclam
Width: 329
VWidth: 0
GlyphClass: 2
Flags: HMW
LayerCount: 2
Back
Fore
SplineSet
100 166 m 1
 100 700 l 1
 229 700 l 1
 229 166 l 1
 100 166 l 1
88 53 m 0
 88 95 121 129 163 129 c 0
 205 129 238 95 238 53 c 0
 238 11 205 -22 163 -22 c 0
 121 -22 88 11 88 53 c 0
EndSplineSet
EndChar

StartChar: exclamdown
Encoding: 161 161 119
GlifName: exclamdown
Width: 210
VWidth: 0
GlyphClass: 2
Flags: HMW
LayerCount: 2
Back
Fore
SplineSet
38 534 m 1
 167 534 l 1
 167 0 l 1
 38 0 l 1
 38 534 l 1
26 647 m 0
 26 689 59 722 101 722 c 0
 143 722 176 689 176 647 c 0
 176 605 143 571 101 571 c 0
 59 571 26 605 26 647 c 0
EndSplineSet
EndChar

StartChar: f
Encoding: 102 102 120
GlifName: f
Width: 304
VWidth: 0
GlyphClass: 2
Flags: HMW
LayerCount: 2
Back
Fore
SplineSet
89 552 m 2
 89 597 140 695 243 696 c 2
 304 696 l 1
 277 579 l 1
 244 579 l 2
 216 578 211 555 211 552 c 2
 211 515 l 1
 277 516 l 1
 277 400 l 1
 211 400 l 1
 211 0 l 1
 89 0 l 1
 89 400 l 1
 26 400 l 1
 26 516 l 1
 89 516 l 1
 89 552 l 2
EndSplineSet
EndChar

StartChar: fi
Encoding: 274 64257 121
GlifName: fi
Width: 494
VWidth: 0
GlyphClass: 2
Flags: HMW
LayerCount: 2
Back
Fore
SplineSet
89 552 m 2
 89 597 140 695 243 696 c 2
 304 696 l 1
 277 579 l 1
 244 579 l 2
 216 578 211 555 211 552 c 2
 211 516 l 1
 457 516 l 1
 457 0 l 1
 335 0 l 1
 335 400 l 1
 211 400 l 1
 211 0 l 1
 89 0 l 1
 89 400 l 1
 26 400 l 1
 26 516 l 1
 89 516 l 1
 89 552 l 2
468 630 m 0
 468 591 435 558 395 558 c 0
 355 558 322 591 322 630 c 0
 322 670 355 703 395 703 c 0
 435 703 468 670 468 630 c 0
EndSplineSet
EndChar

StartChar: five
Encoding: 53 53 122
GlifName: five
Width: 492
VWidth: 0
GlyphClass: 2
Flags: HMW
LayerCount: 2
Back
Fore
SplineSet
131 175 m 1
 147 144 177 131 204 126 c 1
 204 0 l 1
 120 0 60 46 28 107 c 1
 131 175 l 1
258 447 m 1
 401 444 466 333 466 223 c 0
 466 82 363 2 258 0 c 1
 258 126 l 1
 307 135 338 174 338 224 c 0
 338 280 296 319 258 324 c 1
 258 447 l 1
409 574 m 1
 171 573 l 1
 159 442 l 1
 172 445 187 447 204 447 c 1
 204 324 l 1
 170 321 148 301 136 286 c 1
 26 354 l 1
 55 700 l 1
 409 700 l 1
 409 574 l 1
EndSplineSet
EndChar

StartChar: fl
Encoding: 275 64258 123
GlifName: fl
Width: 483
VWidth: 0
GlyphClass: 2
Flags: HMW
LayerCount: 2
Back
Fore
SplineSet
457 0 m 1
 331 0 l 1
 331 579 l 1
 244 579 l 2
 216 578 211 555 211 552 c 2
 211 515 l 1
 277 516 l 1
 277 400 l 1
 211 400 l 1
 211 0 l 1
 89 0 l 1
 89 400 l 1
 26 400 l 1
 26 516 l 1
 89 516 l 1
 89 552 l 2
 89 597 140 695 243 696 c 2
 457 696 l 1
 457 0 l 1
EndSplineSet
EndChar

StartChar: florin
Encoding: 276 402 124
GlifName: florin
Width: 382
VWidth: 0
GlyphClass: 2
Flags: HMW
LayerCount: 2
Back
Fore
SplineSet
141 552 m 2
 141 597 192 695 295 696 c 2
 356 696 l 1
 329 579 l 1
 296 579 l 2
 268 578 263 555 263 552 c 2
 263 515 l 1
 329 516 l 1
 329 400 l 1
 263 400 l 1
 263 7 l 1
 263 0 l 1
 263 -30 l 2
 263 -92 221 -168 109 -168 c 2
 26 -168 l 1
 53 -63 l 1
 108 -63 l 2
 136 -62 141 -39 141 -36 c 2
 141 0 l 1
 141 7 l 1
 141 400 l 1
 78 400 l 1
 78 516 l 1
 141 516 l 1
 141 552 l 2
EndSplineSet
EndChar

StartChar: four
Encoding: 52 52 125
GlifName: four
Width: 483
VWidth: 0
GlyphClass: 2
Flags: HMW
LayerCount: 2
Back
Fore
SplineSet
457 272 m 1
 457 145 l 1
 403 145 l 1
 403 0 l 1
 273 0 l 1
 273 701 l 1
 403 701 l 1
 403 272 l 1
 457 272 l 1
216 272 m 1
 216 145 l 1
 26 145 l 1
 26 272 l 1
 216 598 l 1
 216 351 l 1
 170 272 l 1
 216 272 l 1
EndSplineSet
EndChar

StartChar: fraction
Encoding: 277 8260 126
GlifName: fraction
Width: 560
VWidth: 0
GlyphClass: 2
Flags: HMW
LayerCount: 2
Back
Fore
SplineSet
26 -2 m 1
 458 702 l 1
 534 702 l 1
 109 -2 l 1
 26 -2 l 1
EndSplineSet
EndChar

StartChar: g
Encoding: 103 103 127
GlifName: g
Width: 415
VWidth: 0
GlyphClass: 2
Flags: HMW
LayerCount: 2
Back
Fore
SplineSet
189 516 m 2
 192 516 l 1
 192 403 l 1
 189 403 l 2
 157 403 150 378 150 375 c 2
 150 140 l 2
 150 137 158 112 189 112 c 2
 192 112 l 1
 192 -1 l 1
 189 -1 l 2
 84 -1 35 96 35 139 c 2
 35 378 l 2
 36 422 85 516 189 516 c 2
236 -181 m 2
 26 -181 l 1
 54 -69 l 1
 234 -69 l 2
 265 -68 272 -43 272 -40 c 2
 272 3 l 1
 260 0 248 -1 234 -1 c 2
 231 -1 l 1
 231 109 l 1
 234 109 l 2
 265 110 272 136 272 139 c 2
 272 374 l 2
 272 377 265 403 234 403 c 2
 231 403 l 1
 231 516 l 1
 234 516 l 2
 247 516 261 514 272 511 c 1
 272 516 l 1
 389 516 l 1
 389 -40 l 2
 389 -83 339 -180 236 -181 c 2
EndSplineSet
EndChar

StartChar: germandbls
Encoding: 223 223 128
GlifName: germandbls
Width: 522
VWidth: 0
GlyphClass: 2
Flags: HMW
LayerCount: 2
Back
Fore
SplineSet
155 0 m 1
 26 0 l 1
 26 457 l 2
 27 531 16 705 226 705 c 0
 396 705 406 575 406 518 c 2
 406 405 l 1
 342 406 l 1
 308 400 305 368 305 361 c 0
 305 349 310 326 391 299 c 0
 441 282 496 243 496 160 c 0
 496 57 420 0 327 0 c 2
 199 0 l 1
 199 109 l 1
 327 109 l 2
 342 110 379 120 379 153 c 0
 379 198 331 200 276 228 c 0
 228 252 191 287 191 371 c 0
 191 446 244 489 294 507 c 1
 294 519 l 2
 294 572 259 586 225 586 c 0
 174 586 155 554 155 498 c 2
 155 0 l 1
EndSplineSet
EndChar

StartChar: grave
Encoding: 96 96 129
GlifName: grave
Width: 263
VWidth: 0
GlyphClass: 2
Flags: HMW
LayerCount: 2
Back
Fore
SplineSet
122 605 m 1
 49 757 l 1
 176 757 l 1
 213 605 l 1
 122 605 l 1
EndSplineSet
EndChar

StartChar: greater
Encoding: 62 62 130
GlifName: greater
Width: 414
VWidth: 0
GlyphClass: 2
Flags: HMW
LayerCount: 2
Back
Fore
SplineSet
30 500 m 1
 384 322 l 1
 384 258 l 1
 30 79 l 1
 30 206 l 1
 206 292 l 1
 30 370 l 1
 30 500 l 1
EndSplineSet
EndChar

StartChar: guillemotleft
Encoding: 171 171 131
GlifName: guillemotleft
Width: 475
VWidth: 0
GlyphClass: 2
Flags: HMW
LayerCount: 2
Back
Fore
SplineSet
449 477 m 1
 449 352 l 1
 360 292 l 1
 449 224 l 1
 449 102 l 1
 238 259 l 1
 238 321 l 1
 449 477 l 1
238 477 m 1
 238 352 l 1
 149 292 l 1
 238 224 l 1
 238 102 l 1
 27 259 l 1
 27 321 l 1
 238 477 l 1
EndSplineSet
EndChar

StartChar: guillemotright
Encoding: 187 187 132
GlifName: guillemotright
Width: 414
VWidth: 0
GlyphClass: 2
Flags: HMW
LayerCount: 2
Back
Fore
SplineSet
237 477 m 1
 448 321 l 1
 448 259 l 1
 237 102 l 1
 237 224 l 1
 326 292 l 1
 237 352 l 1
 237 477 l 1
26 477 m 1
 237 321 l 1
 237 259 l 1
 26 102 l 1
 26 224 l 1
 115 292 l 1
 26 352 l 1
 26 477 l 1
EndSplineSet
EndChar

StartChar: guilsinglleft
Encoding: 278 8249 133
GlifName: guilsinglleft
Width: 338
VWidth: 0
GlyphClass: 2
Flags: HMW
LayerCount: 2
Back
Fore
SplineSet
157 500 m 1
 312 500 l 1
 181 292 l 1
 312 79 l 1
 157 79 l 1
 26 292 l 1
 157 500 l 1
EndSplineSet
EndChar

StartChar: guilsinglright
Encoding: 279 8250 134
GlifName: guilsinglright
Width: 338
VWidth: 0
GlyphClass: 2
Flags: HMW
LayerCount: 2
Back
Fore
SplineSet
181 500 m 1
 312 292 l 1
 181 79 l 1
 26 79 l 1
 157 292 l 1
 26 500 l 1
 181 500 l 1
EndSplineSet
EndChar

StartChar: h
Encoding: 104 104 135
GlifName: h
Width: 421
VWidth: 0
GlyphClass: 2
Flags: HMW
LayerCount: 2
Back
Fore
SplineSet
238 511 m 1
 241 511 l 1
 338 507 395 444 395 374 c 2
 395 1 l 1
 281 1 l 1
 281 365 l 2
 281 369 275 396 241 399 c 2
 238 399 l 1
 238 511 l 1
145 1 m 1
 30 1 l 1
 30 698 l 1
 144 698 l 1
 144 505 l 1
 147 506 l 2
 159 509 176 511 190 511 c 2
 193 511 l 1
 193 399 l 1
 190 399 l 2
 158 396 145 370 145 365 c 2
 145 1 l 1
EndSplineSet
EndChar

StartChar: hungarumlaut
Encoding: 280 733 136
GlifName: hungarumlaut
Width: 336
VWidth: 0
GlyphClass: 2
Flags: HMW
LayerCount: 2
Back
Fore
SplineSet
252 605 m 1
 169 605 l 1
 198 757 l 1
 310 757 l 1
 252 605 l 1
109 605 m 1
 26 605 l 1
 55 757 l 1
 167 757 l 1
 109 605 l 1
EndSplineSet
EndChar

StartChar: hyphen
Encoding: 45 45 137
GlifName: hyphen
Width: 416
VWidth: 0
GlyphClass: 2
Flags: HMW
LayerCount: 2
Back
Fore
SplineSet
366 357 m 1
 366 230 l 1
 50 230 l 1
 50 357 l 1
 366 357 l 1
EndSplineSet
EndChar

StartChar: i
Encoding: 105 105 138
GlifName: i
Width: 199
VWidth: 0
GlyphClass: 2
Flags: HMW
LayerCount: 2
Back
Fore
SplineSet
161 0 m 1
 39 0 l 1
 39 516 l 1
 161 516 l 1
 161 0 l 1
172 630 m 0
 172 591 139 558 99 558 c 0
 59 558 26 591 26 630 c 0
 26 670 59 703 99 703 c 0
 139 703 172 670 172 630 c 0
EndSplineSet
EndChar

StartChar: iacute
Encoding: 237 237 139
GlifName: iacute
Width: 199
VWidth: 0
GlyphClass: 2
Flags: HMW
LayerCount: 2
Back
Fore
SplineSet
144 577 m 1
 54 577 l 1
 90 729 l 1
 218 729 l 1
 144 577 l 1
161 0 m 1
 39 0 l 1
 39 516 l 1
 161 516 l 1
 161 0 l 1
EndSplineSet
EndChar

StartChar: idieresis
Encoding: 239 239 141
GlifName: idieresis
Width: 199
VWidth: 0
GlyphClass: 2
Flags: HMW
LayerCount: 2
Back
Fore
SplineSet
-61 651 m 0
 -61 693 -28 727 14 727 c 0
 56 727 89 693 89 651 c 0
 89 609 56 576 14 576 c 0
 -28 576 -61 609 -61 651 c 0
109 651 m 0
 109 693 142 727 184 727 c 0
 226 727 259 693 259 651 c 0
 259 609 226 576 184 576 c 0
 142 576 109 609 109 651 c 0
161 0 m 1
 39 0 l 1
 39 516 l 1
 161 516 l 1
 161 0 l 1
EndSplineSet
EndChar

StartChar: igrave
Encoding: 236 236 142
GlifName: igrave
Width: 199
VWidth: 0
GlyphClass: 2
Flags: HMW
LayerCount: 2
Back
Fore
SplineSet
54 577 m 1
 -20 729 l 1
 108 729 l 1
 144 577 l 1
 54 577 l 1
161 0 m 1
 39 0 l 1
 39 516 l 1
 161 516 l 1
 161 0 l 1
EndSplineSet
EndChar

StartChar: j
Encoding: 106 106 143
GlifName: j
Width: 194
VWidth: 0
GlyphClass: 2
Flags: HMW
LayerCount: 2
Back
Fore
SplineSet
170 628 m 0
 170 588 137 556 97 556 c 0
 57 556 24 588 24 628 c 0
 24 668 57 702 97 702 c 0
 137 702 170 668 170 628 c 0
159 -38 m 2
 159 -85 109 -181 7 -181 c 2
 -50 -181 l 1
 -23 -64 l 1
 4 -64 l 2
 32 -63 37 -40 37 -38 c 2
 37 516 l 1
 159 516 l 1
 159 -38 l 2
EndSplineSet
EndChar

StartChar: k
Encoding: 107 107 144
GlifName: k
Width: 452
VWidth: 0
GlyphClass: 2
Flags: HMW
LayerCount: 2
Back
Fore
SplineSet
296 0 m 1
 183 257 l 1
 295 514 l 1
 428 514 l 1
 313 257 l 1
 428 0 l 1
 296 0 l 1
155 0 m 1
 30 0 l 1
 30 698 l 1
 155 698 l 1
 155 0 l 1
EndSplineSet
EndChar

StartChar: l
Encoding: 108 108 145
GlifName: l
Width: 184
VWidth: 0
GlyphClass: 2
Flags: HMW
LayerCount: 2
Back
Fore
SplineSet
161 0 m 1
 30 0 l 1
 30 698 l 1
 161 698 l 1
 161 0 l 1
EndSplineSet
EndChar

StartChar: less
Encoding: 60 60 146
GlifName: less
Width: 414
VWidth: 0
GlyphClass: 2
Flags: HMW
LayerCount: 2
Back
Fore
SplineSet
384 500 m 1
 384 370 l 1
 208 292 l 1
 384 206 l 1
 384 79 l 1
 30 258 l 1
 30 322 l 1
 384 500 l 1
EndSplineSet
EndChar

StartChar: logicalnot
Encoding: 172 172 147
GlifName: logicalnot
Width: 502
VWidth: 0
GlyphClass: 2
Flags: HMW
LayerCount: 2
Back
Fore
SplineSet
476 208 m 1
 358 208 l 1
 358 327 l 1
 26 327 l 1
 26 442 l 1
 476 442 l 1
 476 208 l 1
EndSplineSet
EndChar

StartChar: lslash
Encoding: 281 322 148
GlifName: lslash
Width: 424
VWidth: 0
GlyphClass: 2
Flags: HMW
LayerCount: 2
Back
Fore
SplineSet
278 0 m 1
 147 0 l 1
 147 698 l 1
 278 698 l 1
 278 0 l 1
326 536 m 5
 398 443 l 5
 98 209 l 5
 26 302 l 5
 326 536 l 5
EndSplineSet
EndChar

StartChar: m
Encoding: 109 109 149
GlifName: m
Width: 684
VWidth: 0
GlyphClass: 2
Flags: HMW
LayerCount: 2
Back
Fore
SplineSet
280 0 m 1
 280 372 l 2
 280 375 273 398 243 398 c 2
 237 398 l 1
 237 519 l 1
 243 519 l 2
 285 519 317 505 342 486 c 1
 367 506 399 519 441 519 c 2
 447 519 l 1
 447 398 l 1
 441 398 l 2
 410 398 404 374 404 372 c 2
 404 0 l 1
 280 0 l 1
530 372 m 2
 530 375 524 398 494 398 c 2
 488 398 l 1
 488 519 l 1
 494 519 l 2
 600 519 654 422 654 377 c 2
 654 0 l 1
 530 0 l 1
 530 372 l 2
154 372 m 2
 154 0 l 1
 30 0 l 1
 30 377 l 2
 30 425 84 519 189 519 c 2
 195 519 l 1
 195 398 l 1
 189 398 l 2
 159 398 154 374 154 372 c 2
EndSplineSet
EndChar

StartChar: mu
Encoding: 181 181 152
GlifName: mu
Width: 468
VWidth: 0
GlyphClass: 2
Flags: HMW
LayerCount: 2
Back
Fore
SplineSet
276 700 m 1
 400 700 l 1
 400 698 l 1
 400 328 l 2
 400 325 406 302 437 302 c 2
 442 302 l 1
 442 181 l 1
 437 181 l 2
 397 181 364 194 339 213 c 1
 313 193 280 179 239 179 c 2
 234 179 l 1
 234 300 l 1
 239 300 l 2
 270 300 276 324 276 326 c 2
 276 698 l 1
 276 700 l 1
26 698 m 1
 150 698 l 1
 150 356 l 1
 150 326 l 2
 150 323 156 300 187 300 c 2
 192 300 l 1
 192 179 l 1
 187 179 l 2
 174 179 162 180 150 183 c 1
 150 0 l 1
 26 0 l 1
 26 321 l 1
 26 356 l 1
 26 698 l 1
EndSplineSet
EndChar

StartChar: multiply
Encoding: 215 215 153
GlifName: multiply
Width: 697
VWidth: 0
GlyphClass: 2
Flags: HMW
LayerCount: 2
Back
Fore
SplineSet
260 417 m 1
 100 578 l 1
 189 667 l 1
 349 507 l 1
 508 666 l 1
 597 577 l 1
 438 418 l 1
 597 259 l 1
 507 170 l 1
 349 328 l 1
 190 168 l 1
 101 257 l 1
 260 417 l 1
EndSplineSet
EndChar

StartChar: n
Encoding: 110 110 154
GlifName: n
Width: 434
VWidth: 0
GlyphClass: 2
Flags: HMW
LayerCount: 2
Back
Fore
SplineSet
154 372 m 2
 154 0 l 1
 30 0 l 1
 30 377 l 2
 30 425 84 519 191 519 c 2
 196 519 l 1
 196 398 l 1
 191 398 l 2
 160 398 154 374 154 372 c 2
280 372 m 2
 280 375 273 398 243 398 c 2
 238 398 l 1
 238 519 l 1
 243 519 l 2
 350 519 404 422 404 377 c 2
 404 0 l 1
 280 0 l 1
 280 372 l 2
EndSplineSet
EndChar

StartChar: nine
Encoding: 57 57 155
GlifName: nine
Width: 504
VWidth: 0
GlyphClass: 2
Flags: HMW
LayerCount: 2
Back
Fore
SplineSet
272 2 m 1
 272 127 l 1
 344 142 349 248 349 300 c 1
 330 285 302 274 272 274 c 1
 272 392 l 1
 273 392 l 1
 293 397 340 413 340 490 c 0
 340 529 310 571 272 575 c 1
 272 700 l 1
 447 700 478 513 478 341 c 0
 478 224 444 6 272 2 c 1
142 178 m 1
 164 150 175 132 218 127 c 1
 218 1 l 1
 140 1 76 51 43 115 c 1
 142 178 l 1
218 274 m 1
 94 274 26 359 26 485 c 0
 26 610 117 699 218 700 c 1
 218 576 l 1
 183 572 145 540 145 491 c 0
 145 409 198 395 217 390 c 1
 218 274 l 1
EndSplineSet
EndChar

StartChar: numbersign
Encoding: 35 35 157
GlifName: numbersign
Width: 888
VWidth: 0
GlyphClass: 2
Flags: HMW
LayerCount: 2
Back
Fore
SplineSet
507 404 m 1
 402 404 l 1
 383 296 l 1
 489 296 l 1
 507 404 l 1
335 22 m 1
 214 22 l 1
 241 176 l 1
 101 176 l 1
 126 297 l 1
 263 297 l 1
 281 404 l 1
 135 404 l 1
 157 525 l 1
 303 525 l 1
 330 682 l 1
 451 682 l 1
 423 524 l 1
 529 524 l 1
 556 682 l 1
 677 682 l 1
 649 524 l 1
 787 524 l 1
 768 403 l 1
 628 403 l 1
 609 296 l 1
 752 296 l 1
 734 175 l 1
 588 175 l 1
 561 22 l 1
 441 22 l 1
 467 176 l 1
 362 176 l 1
 335 22 l 1
EndSplineSet
EndChar

StartChar: o
Encoding: 111 111 158
GlifName: o
Width: 420
VWidth: 0
GlyphClass: 2
Flags: HMW
LayerCount: 2
Back
Fore
SplineSet
233 398 m 1
 233 516 l 1
 239 516 l 2
 342 516 392 421 392 376 c 2
 392 141 l 2
 392 96 343 -1 239 -1 c 2
 233 -1 l 1
 233 117 l 1
 239 117 l 2
 270 118 275 141 275 152 c 2
 275 363 l 2
 275 380 269 398 239 398 c 2
 233 398 l 1
28 376 m 2
 28 421 79 516 186 516 c 2
 192 516 l 1
 192 398 l 1
 186 398 l 2
 153 398 148 373 148 363 c 2
 148 154 l 2
 148 135 156 117 186 117 c 2
 192 117 l 1
 192 -1 l 1
 186 -1 l 2
 78 -1 28 97 28 141 c 2
 28 376 l 2
EndSplineSet
EndChar

StartChar: oe
Encoding: 283 339 162
GlifName: oe
Width: 671
VWidth: 0
GlyphClass: 2
Flags: HMW
LayerCount: 2
Back
Fore
SplineSet
26 376 m 2
 26 421 77 516 184 516 c 2
 190 516 l 1
 190 398 l 1
 184 398 l 2
 151 398 146 374 146 373 c 2
 146 142 l 2
 146 139 154 113 184 113 c 2
 190 113 l 1
 190 -1 l 1
 184 -1 l 2
 76 -1 26 97 26 141 c 2
 26 376 l 2
487 402 m 2
 483 402 l 1
 483 516 l 1
 489 516 l 2
 559 516 644 450 644 378 c 2
 644 208 l 1
 395 208 l 1
 395 141 l 2
 395 138 402 109 430 108 c 2
 489 108 l 2
 519 108 541 132 545 153 c 2
 546 157 l 1
 645 120 l 1
 644 118 l 1
 629 54 559 0 489 0 c 2
 430 0 l 2
 390 0 359 14 334 34 c 1
 310 14 277 -1 237 -1 c 2
 231 -1 l 1
 231 113 l 1
 237 113 l 2
 268 114 273 138 273 140 c 2
 273 372 l 2
 273 375 267 398 237 398 c 2
 231 398 l 1
 231 516 l 1
 237 516 l 2
 277 516 309 502 333 482 c 1
 358 502 390 516 429 516 c 2
 434 516 l 1
 434 400 l 1
 431 400 l 2
 402 400 395 380 395 369 c 2
 395 324 l 1
 530 324 l 1
 530 369 l 2
 530 396 507 402 487 402 c 2
EndSplineSet
EndChar

StartChar: one
Encoding: 49 49 164
GlifName: one
Width: 266
VWidth: 0
GlyphClass: 2
Flags: HMW
LayerCount: 2
Back
Fore
SplineSet
106 499 m 1
 30 439 l 1
 30 640 l 1
 106 699 l 1
 236 699 l 1
 236 0 l 1
 106 0 l 1
 106 499 l 1
EndSplineSet
EndChar

StartChar: onehalf
Encoding: 189 189 165
GlifName: onehalf
Width: 581
VWidth: 0
GlyphClass: 2
Flags: HMW
LayerCount: 2
Back
Fore
SplineSet
114 597 m 1
 76 567 l 1
 76 671 l 1
 114 702 l 1
 182 702 l 1
 182 349 l 1
 114 349 l 1
 114 597 l 1
448 288 m 1
 448 354 l 1
 453 354 l 2
 531 354 553 290 554 251 c 0
 554 197 529 180 499 159 c 0
 464 134 445 119 428 93 c 1
 427 92 l 1
 348 92 l 1
 349 94 l 2
 379 156 429 184 444 196 c 0
 467 215 490 220 490 251 c 0
 490 275 476 287 449 288 c 2
 448 288 l 1
551 65 m 1
 551 -1 l 1
 346 -1 l 1
 346 65 l 1
 551 65 l 1
26 -2 m 1
 458 702 l 1
 534 702 l 1
 109 -2 l 1
 26 -2 l 1
422 288 m 2
 420 287 400 278 400 250 c 2
 400 248 l 1
 337 261 l 1
 338 263 l 1
 343 306 374 347 422 353 c 1
 424 354 l 1
 424 290 l 1
 424 288 l 1
 422 288 l 2
EndSplineSet
EndChar

StartChar: onequarter
Encoding: 188 188 166
GlifName: onequarter
Width: 560
VWidth: 0
GlyphClass: 2
Flags: HMW
LayerCount: 2
Back
Fore
SplineSet
26 -2 m 1
 458 702 l 1
 534 702 l 1
 109 -2 l 1
 26 -2 l 1
368 137 m 1
 368 71 l 1
 270 71 l 1
 270 137 l 1
 368 305 l 1
 368 175 l 1
 346 137 l 1
 368 137 l 1
488 137 m 1
 488 71 l 1
 461 71 l 1
 461 -1 l 1
 393 -1 l 1
 393 352 l 1
 461 352 l 1
 461 137 l 1
 488 137 l 1
113 597 m 1
 75 567 l 1
 75 671 l 1
 114 702 l 1
 181 702 l 1
 181 349 l 1
 113 349 l 1
 113 597 l 1
EndSplineSet
EndChar

StartChar: ordfeminine
Encoding: 170 170 167
GlifName: ordfeminine
Width: 227
VWidth: 0
GlyphClass: 2
Flags: HMW
LayerCount: 2
Back
Fore
SplineSet
116 701 m 1
 119 701 l 2
 165 701 188 659 188 639 c 2
 188 535 l 2
 188 533 189 523 197 523 c 2
 200 523 l 1
 200 471 l 1
 197 471 l 2
 181 471 168 476 159 483 c 1
 148 475 136 471 120 471 c 2
 117 471 l 1
 117 523 l 1
 120 523 l 2
 132 523 134 536 134 537 c 2
 134 569 l 1
 115 559 85 554 79 551 c 0
 77 550 75 547 75 543 c 2
 75 537 l 2
 75 529 78 523 89 523 c 2
 99 523 l 1
 99 471 l 1
 97 471 l 2
 54 471 28 494 28 520 c 2
 28 551 l 2
 28 566 31 575 50 586 c 0
 70 598 134 610 134 626 c 2
 134 631 l 2
 134 641 133 648 119 649 c 2
 116 650 l 1
 116 701 l 1
96 649 m 2
 87 648 80 643 80 627 c 2
 80 623 l 1
 31 642 l 1
 31 644 l 2
 31 676 65 701 96 701 c 2
 99 701 l 1
 99 649 l 1
 96 649 l 2
26 430 m 1
 201 430 l 1
 201 362 l 1
 26 362 l 1
 26 430 l 1
EndSplineSet
EndChar

StartChar: ordmasculine
Encoding: 186 186 168
GlifName: ordmasculine
Width: 230
VWidth: 0
GlyphClass: 2
Flags: HMW
LayerCount: 2
Back
Fore
SplineSet
32 637 m 2
 32 658 55 700 103 700 c 2
 108 700 l 1
 108 645 l 1
 103 645 l 2
 90 645 88 636 88 635 c 2
 88 534 l 2
 88 533 91 525 103 525 c 2
 108 525 l 1
 108 470 l 1
 103 470 l 2
 54 470 32 513 32 533 c 2
 32 637 l 2
123 645 m 1
 123 700 l 1
 127 700 l 2
 173 700 196 658 196 637 c 2
 196 533 l 2
 196 513 174 470 127 470 c 2
 123 470 l 1
 123 523 l 1
 127 523 l 2
 139 523 141 532 141 533 c 2
 141 635 l 2
 141 636 139 645 127 645 c 2
 123 645 l 1
26 432 m 1
 204 432 l 1
 204 361 l 1
 26 361 l 1
 26 432 l 1
EndSplineSet
EndChar

StartChar: oslash
Encoding: 248 248 169
GlifName: oslash
Width: 498
VWidth: 0
GlyphClass: 2
Flags: HMW
LayerCount: 2
Back
Fore
SplineSet
445 490 m 1
 498 430 l 1
 431 369 l 1
 431 141 l 2
 431 96 382 -1 278 -1 c 2
 272 -1 l 1
 272 117 l 1
 278 117 l 2
 309 118 314 141 314 152 c 2
 314 261 l 1
 188 145 l 1
 190 130 200 117 225 117 c 2
 231 117 l 1
 231 -1 l 1
 225 -1 l 2
 165 -1 123 29 98 63 c 1
 53 22 l 1
 0 82 l 1
 67 143 l 1
 67 376 l 2
 67 421 118 516 225 516 c 2
 231 516 l 1
 231 398 l 1
 225 398 l 2
 192 398 187 373 187 363 c 2
 187 253 l 1
 314 370 l 1
 312 384 304 398 278 398 c 2
 272 398 l 1
 272 516 l 1
 278 516 l 2
 336 516 378 486 402 451 c 1
 445 490 l 1
EndSplineSet
EndChar

StartChar: p
Encoding: 112 112 171
GlifName: p
Width: 422
VWidth: 0
GlyphClass: 2
Flags: HMW
LayerCount: 2
Back
Fore
SplineSet
30 516 m 1
 155 516 l 1
 155 -182 l 1
 30 -182 l 1
 30 516 l 1
232 0 m 2
 203 0 l 1
 203 118 l 1
 234 118 l 2
 271 119 276 134 276 143 c 2
 276 372 l 2
 276 385 258 398 228 398 c 2
 196 398 l 1
 196 516 l 1
 228 516 l 2
 335 516 396 431 396 375 c 2
 396 139 l 2
 396 86 345 0 232 0 c 2
EndSplineSet
EndChar

StartChar: paragraph
Encoding: 182 182 172
GlifName: paragraph
Width: 444
VWidth: 0
GlyphClass: 2
Flags: HMW
LayerCount: 2
Back
Fore
SplineSet
418 705 m 1
 418 -5 l 1
 335 -5 l 1
 335 705 l 1
 418 705 l 1
278 705 m 1
 278 -5 l 1
 195 -5 l 1
 195 329 l 1
 91 329 26 403 26 517 c 0
 26 617 93 705 195 705 c 0
 223 705 250 705 278 705 c 1
EndSplineSet
EndChar

StartChar: parenleft
Encoding: 40 40 173
GlifName: parenleft
Width: 262
VWidth: 0
GlyphClass: 2
Flags: HMW
LayerCount: 2
Back
Fore
SplineSet
212 735 m 1
 212 648 l 1
 173 625 154 593 153 521 c 2
 153 208 l 2
 153 206 153 204 153 202 c 0
 153 104 178 73 213 51 c 1
 213 -37 l 1
 71 22 50 93 50 189 c 2
 50 510 l 2
 50 652 113 696 212 735 c 1
EndSplineSet
EndChar

StartChar: parenright
Encoding: 41 41 174
GlifName: parenright
Width: 330
VWidth: 0
GlyphClass: 2
Flags: HMW
LayerCount: 2
Back
Fore
SplineSet
101 746 m 1
 209 706 280 650 280 510 c 2
 280 189 l 2
 280 93 243 9 101 -47 c 1
 101 51 l 1
 136 73 161 104 161 202 c 0
 161 204 161 206 161 208 c 2
 161 521 l 2
 160 593 139 626 100 649 c 1
 101 746 l 1
EndSplineSet
EndChar

StartChar: period
Encoding: 46 46 175
GlifName: period
Width: 250
VWidth: 0
GlyphClass: 2
Flags: HMW
LayerCount: 2
Back
Fore
SplineSet
50 53 m 0
 50 95 83 129 125 129 c 0
 167 129 200 95 200 53 c 0
 200 11 167 -22 125 -22 c 0
 83 -22 50 11 50 53 c 0
EndSplineSet
EndChar

StartChar: perthousand
Encoding: 284 8240 177
GlifName: perthousand
Width: 897
VWidth: 0
GlyphClass: 2
Flags: HMW
LayerCount: 2
Back
Fore
SplineSet
748 352 m 1
 748 287 l 1
 746 287 l 1
 721 281 719 233 719 201 c 2
 719 171 l 2
 719 125 720 71 746 65 c 1
 747 65 l 1
 747 0 l 1
 745 0 l 2
 711 2 651 28 651 178 c 0
 651 306 700 349 746 352 c 2
 748 352 l 1
776 352 m 2
 822 349 872 307 872 178 c 0
 872 28 811 2 777 0 c 2
 775 0 l 1
 775 65 l 1
 776 65 l 1
 802 71 804 125 804 171 c 2
 804 201 l 2
 804 233 801 281 776 287 c 1
 774 287 l 1
 774 352 l 1
 776 352 l 2
490 352 m 1
 490 287 l 1
 488 287 l 1
 463 281 461 233 461 201 c 2
 461 171 l 2
 461 125 462 71 488 65 c 1
 489 65 l 1
 489 0 l 1
 487 0 l 2
 453 2 393 28 393 178 c 0
 393 306 442 349 488 352 c 2
 490 352 l 1
518 352 m 2
 564 349 614 307 614 178 c 0
 614 28 553 2 519 0 c 2
 517 0 l 1
 517 65 l 1
 518 65 l 1
 544 71 546 125 546 171 c 2
 546 201 l 2
 546 233 543 281 518 287 c 1
 516 287 l 1
 516 352 l 1
 518 352 l 2
122 703 m 1
 122 637 l 1
 121 637 l 1
 96 631 94 583 94 551 c 2
 94 522 l 2
 94 476 95 421 121 415 c 1
 122 415 l 1
 122 350 l 1
 120 351 l 1
 86 353 26 378 26 528 c 0
 26 656 75 699 121 702 c 1
 122 703 l 1
151 702 m 1
 197 699 246 657 246 528 c 0
 246 378 186 353 152 351 c 1
 150 350 l 1
 150 415 l 1
 151 415 l 1
 177 421 178 476 178 522 c 2
 178 551 l 2
 178 583 176 631 151 637 c 1
 150 637 l 1
 150 703 l 1
 151 702 l 1
67 0 m 1
 497 700 l 1
 570 700 l 1
 147 0 l 1
 67 0 l 1
EndSplineSet
EndChar

StartChar: plus
Encoding: 43 43 178
GlifName: plus
Width: 475
VWidth: 0
GlyphClass: 2
Flags: HMW
LayerCount: 2
Back
Fore
SplineSet
425 357 m 1
 425 230 l 1
 300 230 l 1
 300 87 l 1
 173 87 l 1
 173 230 l 1
 50 230 l 1
 50 357 l 1
 173 357 l 1
 173 498 l 1
 300 498 l 1
 300 357 l 1
 425 357 l 1
EndSplineSet
EndChar

StartChar: plusminus
Encoding: 177 177 179
GlifName: plusminus
Width: 575
VWidth: 0
GlyphClass: 2
Flags: HMW
LayerCount: 2
Back
Fore
SplineSet
476 167 m 1
 476 40 l 1
 100 40 l 1
 100 167 l 1
 476 167 l 1
EndSplineSet
Refer: 178 43 N 1 0 0 1 0 161 2
EndChar

StartChar: q
Encoding: 113 113 180
GlifName: q
Width: 416
VWidth: 0
GlyphClass: 2
Flags: HMW
LayerCount: 2
Back
Fore
SplineSet
385 516 m 1
 386 -182 l 1
 262 -182 l 1
 261 516 l 1
 385 516 l 1
146 143 m 2
 146 141 150 119 188 118 c 2
 219 118 l 1
 219 0 l 1
 190 0 l 2
 77 0 27 93 26 139 c 2
 26 375 l 2
 26 420 76 516 183 516 c 2
 214 516 l 1
 214 398 l 1
 183 398 l 2
 151 398 146 375 146 373 c 2
 146 143 l 2
EndSplineSet
EndChar

StartChar: question
Encoding: 63 63 181
GlifName: question
Width: 460
VWidth: 0
GlyphClass: 2
Flags: HMW
LayerCount: 2
Back
Fore
SplineSet
112 526 m 1
 30 611 l 1
 60 649 110 703 218 703 c 0
 346 703 426 620 430 491 c 0
 430 488 430 484 430 481 c 0
 430 289 263 276 263 276 c 1
 263 166 l 1
 134 166 l 1
 134 386 l 1
 251 388 302 400 302 493 c 0
 302 545 257 575 210 575 c 0
 167 575 133 554 112 526 c 1
122 53 m 0
 122 95 155 129 197 129 c 0
 239 129 273 95 273 53 c 0
 273 11 239 -22 197 -22 c 0
 155 -22 122 11 122 53 c 0
EndSplineSet
EndChar

StartChar: questiondown
Encoding: 191 191 182
GlifName: questiondown
Width: 460
VWidth: 0
GlyphClass: 2
Flags: HMW
LayerCount: 2
Back
Fore
SplineSet
122 636 m 0
 122 678 155 711 197 711 c 0
 239 711 273 678 273 636 c 0
 273 594 239 560 197 560 c 0
 155 560 122 594 122 636 c 0
112 163 m 1
 133 135 167 114 210 114 c 0
 257 114 302 144 302 196 c 0
 302 289 251 301 134 303 c 1
 134 523 l 1
 263 523 l 1
 263 413 l 1
 263 413 430 400 430 208 c 0
 430 72 349 -14 218 -14 c 0
 110 -14 60 40 30 78 c 1
 112 163 l 1
EndSplineSet
EndChar

StartChar: quotedbl
Encoding: 34 34 183
GlifName: quotedbl
Width: 407
VWidth: 0
GlyphClass: 2
Flags: HMW
LayerCount: 2
Back
Fore
SplineSet
357 465 m 1
 230 465 l 1
 230 736 l 1
 357 736 l 1
 357 465 l 1
177 465 m 1
 50 465 l 1
 50 736 l 1
 177 736 l 1
 177 465 l 1
EndSplineSet
EndChar

StartChar: quotedbl.alt
Encoding: 285 -1 184
GlifName: quotedbl.alt
Width: 359
VWidth: 0
GlyphClass: 2
Flags: HMW
LayerCount: 2
Back
Fore
SplineSet
333 476 m 1
 206 476 l 1
 206 700 l 1
 333 700 l 1
 333 476 l 1
153 476 m 1
 26 476 l 1
 26 700 l 1
 153 700 l 1
 153 476 l 1
EndSplineSet
EndChar

StartChar: quotesingle
Encoding: 39 39 191
GlifName: quotesingle
Width: 227
VWidth: 0
GlyphClass: 2
Flags: HMW
LayerCount: 2
Back
Fore
SplineSet
177 465 m 1
 50 465 l 1
 50 736 l 1
 177 736 l 1
 177 465 l 1
EndSplineSet
EndChar

StartChar: r
Encoding: 114 114 192
GlifName: r
Width: 316
VWidth: 0
GlyphClass: 2
Flags: HMW
LayerCount: 2
Back
Fore
SplineSet
36 516 m 1
 160 516 l 1
 160 454 l 1
 181 481 229 516 284 516 c 2
 317 516 l 1
 289 395 l 1
 222 394 160 331 160 271 c 2
 160 0 l 1
 36 0 l 1
 36 516 l 1
EndSplineSet
EndChar

StartChar: registered
Encoding: 174 174 193
GlifName: registered
Width: 404
VWidth: 0
GlyphClass: 2
Flags: HMW
LayerCount: 2
Back
Fore
SplineSet
151 627 m 1
 190 627 l 1
 190 430 l 1
 151 430 l 1
 151 627 l 1
206 547 m 1
 210 547 l 2
 227 547 234 557 234 568 c 0
 234 582 224 591 210 591 c 2
 206 591 l 1
 206 628 l 1
 248 628 270 604 270 570 c 0
 270 551 264 538 251 530 c 1
 261 522 269 506 270 492 c 2
 270 431 l 1
 235 431 l 1
 235 481 l 2
 235 504 226 511 206 511 c 1
 206 547 l 1
211 396 m 1
 276 399 332 456 334 525 c 0
 334 526 334 526 334 527 c 0
 334 608 270 662 211 662 c 1
 211 703 l 1
 277 702 374 641 374 528 c 0
 374 526 374 525 374 523 c 0
 374 423 288 357 211 354 c 1
 211 396 l 1
191 396 m 1
 192 354 l 1
 111 355 30 432 30 523 c 0
 30 524 30 524 30 525 c 0
 30 649 133 703 193 703 c 0
 194 703 194 703 195 703 c 2
 195 662 l 1
 136 662 70 609 70 526 c 0
 71 457 126 399 191 396 c 1
EndSplineSet
EndChar

StartChar: ring
Encoding: 292 730 194
GlifName: ring
Width: 244
VWidth: 0
GlyphClass: 2
Flags: HMW
LayerCount: 2
Back
Fore
SplineSet
26 526 m 0
 26 579 69 622 122 622 c 0
 175 622 218 579 218 526 c 0
 218 473 175 430 122 430 c 0
 69 430 26 473 26 526 c 0
90 526 m 0
 90 508 104 494 122 494 c 0
 140 494 154 508 154 526 c 0
 154 544 140 558 122 558 c 0
 104 558 90 544 90 526 c 0
EndSplineSet
EndChar

StartChar: s
Encoding: 115 115 195
GlifName: s
Width: 418
VWidth: 0
GlyphClass: 2
Flags: HMW
LayerCount: 2
Back
Fore
SplineSet
182 406 m 1
 180 406 l 1
 140 402 138 377 138 362 c 0
 138 344 153 323 294 296 c 0
 346 286 397 243 397 160 c 0
 397 57 321 -5 228 -5 c 2
 225 -5 l 1
 225 109 l 1
 228 109 l 2
 243 110 280 120 280 153 c 0
 280 198 168 206 111 232 c 0
 62 256 26 287 26 371 c 0
 26 473 125 517 179 517 c 2
 182 517 l 1
 182 406 l 1
388 376 m 2
 388 374 l 1
 276 355 l 1
 276 358 l 1
 272 399 234 404 226 404 c 2
 223 404 l 1
 224 517 l 1
 227 517 l 2
 321 517 388 440 388 376 c 2
22 134 m 1
 21 136 l 1
 133 157 l 1
 133 154 l 2
 135 135 157 113 181 111 c 1
 184 110 l 1
 184 -5 l 1
 181 -5 l 2
 87 -5 25 70 22 134 c 1
EndSplineSet
EndChar

StartChar: section
Encoding: 167 167 197
GlifName: section
Width: 547
VWidth: 0
GlyphClass: 2
Flags: HMW
LayerCount: 2
Back
Fore
SplineSet
265 759 m 2
 377 759 l 1
 377 627 l 1
 273 627 l 2
 240 627 219 606 219 576 c 0
 219 555 230 540 246 527 c 1
 246 372 l 1
 233 377 221 381 211 386 c 0
 202 391 193 395 184 400 c 1
 174 392 167 380 167 357 c 0
 167 314 204 290 246 272 c 1
 246 125 l 1
 215 138 181 150 154 166 c 0
 93 202 26 249 26 351 c 0
 26 413 54 465 98 499 c 1
 91 519 88 543 88 571 c 0
 88 710 197 759 265 759 c 2
363 223 m 1
 373 231 380 243 380 266 c 0
 380 310 343 333 300 351 c 1
 300 498 l 1
 331 485 365 473 393 457 c 0
 454 421 521 374 521 272 c 0
 521 210 493 158 449 124 c 1
 456 104 459 80 459 52 c 0
 459 -87 350 -136 282 -136 c 2
 170 -136 l 1
 170 -4 l 1
 274 -4 l 2
 307 -4 328 17 328 47 c 0
 328 68 317 84 300 97 c 1
 300 252 l 1
 313 247 325 242 336 237 c 0
 345 232 354 228 363 223 c 1
EndSplineSet
EndChar

StartChar: semicolon
Encoding: 59 59 198
GlifName: semicolon
Width: 291
VWidth: 0
GlyphClass: 2
Flags: HMW
LayerCount: 2
Back
Fore
SplineSet
177 -23 m 1
 50 -23 l 1
 87 129 l 1
 214 129 l 1
 177 -23 l 1
91 360 m 0
 91 402 124 436 166 436 c 0
 208 436 241 402 241 360 c 0
 241 318 208 285 166 285 c 0
 124 285 91 318 91 360 c 0
EndSplineSet
EndChar

StartChar: seven
Encoding: 55 55 199
GlifName: seven
Width: 435
VWidth: 0
GlyphClass: 2
Flags: HMW
LayerCount: 2
Back
Fore
SplineSet
223 450 m 1
 356 450 l 1
 317 300 289 154 273 0 c 1
 136 0 l 1
 153 158 181 295 223 450 c 1
20 698 m 1
 409 698 l 1
 409 573 l 1
 397 562 378 529 371 510 c 1
 236 510 l 1
 260 572 l 1
 20 572 l 1
 20 698 l 1
EndSplineSet
EndChar

StartChar: six
Encoding: 54 54 200
GlifName: six
Width: 497
VWidth: 0
GlyphClass: 2
Flags: HMW
LayerCount: 2
Back
Fore
SplineSet
228 697 m 1
 228 572 l 1
 165 565 150 448 150 399 c 1
 169 414 198 425 228 425 c 1
 228 307 l 1
 227 307 l 1
 207 302 160 286 160 209 c 0
 160 170 190 128 228 124 c 1
 228 -1 l 1
 53 -1 26 186 26 358 c 0
 26 475 55 675 228 697 c 1
355 537 m 1
 339 559 321 573 293 573 c 0
 289 573 286 573 282 573 c 1
 282 698 l 1
 360 698 415 659 450 600 c 1
 355 537 l 1
282 425 m 1
 406 425 471 327 471 209 c 0
 471 84 383 0 282 -1 c 1
 282 123 l 1
 317 127 356 159 356 208 c 0
 356 290 302 304 283 309 c 1
 282 425 l 1
EndSplineSet
EndChar

StartChar: slash
Encoding: 47 47 201
GlifName: slash
Width: 401
VWidth: 0
GlyphClass: 2
Flags: HMW
LayerCount: 2
Back
Fore
SplineSet
50 -23 m 1
 225 716 l 1
 351 716 l 1
 177 -23 l 1
 50 -23 l 1
EndSplineSet
EndChar

StartChar: sterling
Encoding: 163 163 203
GlifName: sterling
Width: 520
VWidth: 0
GlyphClass: 2
Flags: HMW
LayerCount: 2
Back
Fore
SplineSet
371 520 m 1
 361 551 341 584 297 584 c 0
 265 584 239 568 239 517 c 2
 239 396 l 1
 378 396 l 1
 378 289 l 1
 238 289 l 1
 238 108 l 1
 462 108 l 1
 462 0 l 1
 106 0 l 1
 106 288 l 1
 50 288 l 1
 50 395 l 1
 106 395 l 1
 106 514 l 2
 106 617 161 705 291 705 c 0
 292 705 292 705 293 705 c 0
 321 705 345 700 366 691 c 0
 424 668 459 618 470 570 c 1
 371 520 l 1
EndSplineSet
EndChar

StartChar: t
Encoding: 116 116 204
GlifName: t
Width: 324
VWidth: 0
GlyphClass: 2
Flags: HMW
LayerCount: 2
Back
Fore
SplineSet
244 125 m 2
 271 125 l 1
 298 0 l 1
 243 0 l 2
 121 1 89 66 89 168 c 2
 89 398 l 1
 26 398 l 1
 26 516 l 1
 89 516 l 1
 89 700 l 1
 211 700 l 1
 211 516 l 1
 271 516 l 1
 271 398 l 1
 211 398 l 1
 211 159 l 2
 211 145 216 126 244 125 c 2
EndSplineSet
EndChar

StartChar: thorn
Encoding: 254 254 205
GlifName: thorn
Width: 422
VWidth: 0
GlyphClass: 2
Flags: HMW
LayerCount: 2
Back
Fore
SplineSet
30 700 m 1
 155 700 l 1
 155 -182 l 1
 30 -182 l 1
 30 700 l 1
232 0 m 2
 203 0 l 1
 203 118 l 1
 234 118 l 2
 271 119 276 134 276 143 c 2
 276 372 l 2
 276 385 258 398 228 398 c 2
 196 398 l 1
 196 516 l 1
 228 516 l 2
 335 516 396 431 396 375 c 2
 396 139 l 2
 396 86 345 0 232 0 c 2
EndSplineSet
EndChar

StartChar: three
Encoding: 51 51 206
GlifName: three
Width: 484
VWidth: 0
GlyphClass: 2
Flags: HMW
LayerCount: 2
Back
Fore
SplineSet
132 160 m 1
 146 139 166 127 195 125 c 1
 195 -1 l 1
 117 -1 60 30 26 97 c 1
 132 160 l 1
254 122 m 1
 297 122 327 161 327 201 c 0
 327 261 306 286 188 286 c 1
 188 410 l 1
 308 410 327 439 327 499 c 0
 327 553 286 574 256 574 c 0
 255 574 253 574 252 574 c 2
 252 698 l 1
 386 695 453 582 453 508 c 0
 453 411 422 366 391 350 c 1
 419 331 458 284 458 199 c 0
 458 75 337 0 257 0 c 0
 256 0 256 0 255 0 c 2
 254 122 l 1
132 537 m 1
 26 600 l 1
 59 656 117 698 195 698 c 1
 195 572 l 1
 166 570 146 558 132 537 c 1
EndSplineSet
EndChar

StartChar: threequarters
Encoding: 190 190 207
GlifName: threequarters
Width: 584
VWidth: 0
GlyphClass: 2
Flags: HMW
LayerCount: 2
Back
Fore
SplineSet
50 -2 m 1
 482 702 l 1
 558 702 l 1
 133 -2 l 1
 50 -2 l 1
392 137 m 1
 392 71 l 1
 294 71 l 1
 294 137 l 1
 392 305 l 1
 392 175 l 1
 370 137 l 1
 392 137 l 1
512 137 m 1
 512 71 l 1
 485 71 l 1
 485 -1 l 1
 417 -1 l 1
 417 352 l 1
 485 352 l 1
 485 137 l 1
 512 137 l 1
82 616 m 1
 26 649 l 1
 27 651 l 2
 44 679 74 700 114 700 c 1
 114 635 l 1
 113 635 l 2
 99 634 90 628 83 618 c 2
 82 616 l 1
142 412 m 2
 163 412 177 431 177 450 c 0
 177 479 167 492 108 492 c 1
 108 557 l 1
 109 557 l 2
 169 557 177 571 177 600 c 0
 177 626 157 636 143 636 c 2
 140 636 l 1
 140 701 l 1
 141 700 l 1
 209 698 243 642 243 604 c 0
 243 557 229 534 214 525 c 1
 229 514 245 491 245 450 c 0
 245 387 185 348 144 348 c 2
 141 348 l 1
 141 412 l 1
 142 412 l 2
83 431 m 2
 90 421 99 415 113 414 c 2
 114 414 l 1
 114 348 l 1
 113 348 l 2
 74 348 44 364 27 398 c 1
 26 399 l 1
 82 432 l 1
 83 431 l 2
EndSplineSet
EndChar

StartChar: tilde
Encoding: 294 732 208
GlifName: tilde
Width: 333
VWidth: 0
GlyphClass: 2
Flags: HMW
LayerCount: 2
Back
Fore
SplineSet
307 114 m 1
 273 93 246 86 223 86 c 0
 170 86 140 126 92 126 c 0
 74 126 52 120 26 104 c 1
 26 206 l 1
 54 222 77 228 96 228 c 0
 147 228 176 187 227 187 c 0
 249 187 274 195 307 215 c 1
 307 114 l 1
EndSplineSet
EndChar

StartChar: two
Encoding: 50 50 209
GlifName: two
Width: 480
VWidth: 0
GlyphClass: 2
Flags: HMW
LayerCount: 2
Back
Fore
SplineSet
245 574 m 1
 245 700 l 2
 247 700 250 700 252 700 c 0
 406 700 452 574 453 497 c 0
 453 496 453 495 453 494 c 0
 453 390 403 358 342 315 c 0
 271 265 231 232 197 179 c 1
 45 179 l 1
 105 302 205 359 235 384 c 0
 278 421 329 433 330 495 c 0
 330 496 330 496 330 497 c 0
 330 547 300 572 245 574 c 1
190 699 m 1
 190 573 l 2
 189 573 142 557 142 495 c 1
 24 520 l 1
 33 604 95 687 190 699 c 1
447 127 m 1
 447 0 l 1
 43 0 l 1
 43 127 l 1
 447 127 l 1
EndSplineSet
EndChar

StartChar: u
Encoding: 117 117 210
GlifName: u
Width: 434
VWidth: 0
GlyphClass: 2
Flags: HMW
LayerCount: 2
Back
Fore
SplineSet
30 514 m 1
 154 514 l 1
 154 142 l 2
 154 139 160 116 191 116 c 2
 196 116 l 1
 196 -5 l 1
 191 -5 l 2
 84 -5 30 89 30 137 c 2
 30 514 l 1
238 116 m 1
 243 116 l 2
 274 116 280 140 280 142 c 2
 280 514 l 1
 404 514 l 1
 404 137 l 2
 404 92 350 -5 243 -5 c 2
 238 -5 l 1
 238 116 l 1
EndSplineSet
EndChar

StartChar: underscore
Encoding: 95 95 215
GlifName: underscore
Width: 510
VWidth: 0
GlyphClass: 2
Flags: HMW
LayerCount: 2
Back
Fore
SplineSet
480 -205 m 1
 30 -205 l 1
 30 -98 l 1
 480 -98 l 1
 480 -205 l 1
EndSplineSet
EndChar

StartChar: uni00B2
Encoding: 178 178 218
GlifName: uni00B_2
Width: 245
VWidth: 0
GlyphClass: 2
Flags: HMW
LayerCount: 2
Back
Fore
SplineSet
122 639 m 1
 122 700 l 1
 129 700 l 2
 198 700 219 643 219 609 c 0
 219 560 196 546 170 527 c 0
 139 505 123 493 109 471 c 2
 108 469 l 1
 34 469 l 1
 37 475 l 2
 63 529 107 553 119 563 c 0
 139 580 159 584 159 608 c 0
 159 629 148 638 125 639 c 2
 122 639 l 1
216 451 m 1
 216 389 l 1
 34 389 l 1
 34 451 l 1
 216 451 l 1
102 638 m 2
 98 636 85 629 85 608 c 2
 85 604 l 1
 26 616 l 1
 26 619 l 1
 30 657 58 695 101 700 c 1
 105 700 l 1
 105 645 l 1
 105 638 l 1
 102 638 l 2
EndSplineSet
EndChar

StartChar: uni00B3
Encoding: 179 179 219
GlifName: uni00B_3
Width: 247
VWidth: 0
GlyphClass: 2
Flags: HMW
LayerCount: 2
Back
Fore
SplineSet
78 623 m 1
 26 654 l 1
 28 657 l 2
 43 682 69 701 104 701 c 2
 107 701 l 1
 107 640 l 1
 104 640 l 2
 92 639 85 634 80 626 c 2
 78 623 l 1
129 452 m 2
 145 452 157 467 157 483 c 0
 157 507 151 516 101 516 c 2
 97 516 l 1
 97 577 l 1
 101 577 l 2
 152 577 157 588 157 612 c 0
 157 633 141 640 130 640 c 2
 125 640 l 1
 125 701 l 1
 128 701 l 2
 188 700 219 650 219 616 c 0
 219 578 208 557 195 547 c 1
 207 537 221 516 221 482 c 0
 221 426 167 392 131 392 c 2
 126 392 l 1
 126 452 l 1
 129 452 l 2
80 467 m 2
 85 459 92 455 104 454 c 2
 107 453 l 1
 107 392 l 1
 104 392 l 2
 69 392 43 406 28 436 c 1
 26 439 l 1
 78 470 l 1
 80 467 l 2
EndSplineSet
EndChar

StartChar: uni00B9
Encoding: 185 185 220
GlifName: uni00B_9
Width: 186
VWidth: 0
GlyphClass: 2
Flags: HMW
LayerCount: 2
Back
Fore
SplineSet
93 610 m 1
 60 584 l 1
 60 673 l 1
 95 700 l 1
 161 700 l 1
 161 391 l 1
 93 391 l 1
 93 610 l 1
EndSplineSet
EndChar

StartChar: v
Encoding: 118 118 221
GlifName: v
Width: 400
VWidth: 0
GlyphClass: 2
Flags: HMW
LayerCount: 2
Back
Fore
SplineSet
269 516 m 1
 400 515 l 1
 308 208 l 1
 296 208 l 1
 232 394 l 1
 269 516 l 1
174 0 m 1
 16 515 l 1
 151 516 l 1
 286 120 l 1
 243 0 l 1
 174 0 l 1
EndSplineSet
EndChar

StartChar: w
Encoding: 119 119 222
GlifName: w
Width: 577
VWidth: 0
GlyphClass: 2
Flags: HMW
LayerCount: 2
Back
Fore
SplineSet
443 516 m 1
 569 515 l 1
 471 208 l 1
 463 208 l 1
 407 394 l 1
 443 516 l 1
348 0 m 1
 190 515 l 1
 328 516 l 1
 449 120 l 1
 412 0 l 1
 348 0 l 1
160 0 m 1
 8 515 l 1
 144 516 l 1
 261 120 l 1
 222 0 l 1
 160 0 l 1
EndSplineSet
EndChar

StartChar: x
Encoding: 120 120 223
GlifName: x
Width: 381
VWidth: 0
GlyphClass: 2
Flags: HMW
LayerCount: 2
Back
Fore
SplineSet
132 262 m 1
 22 516 l 1
 147 516 l 1
 200 399 l 1
 252 515 l 1
 378 515 l 1
 269 262 l 1
 382 0 l 1
 257 0 l 1
 200 126 l 1
 143 0 l 1
 18 0 l 1
 132 262 l 1
EndSplineSet
EndChar

StartChar: y
Encoding: 121 121 224
GlifName: y
Width: 383
VWidth: 0
GlyphClass: 2
Flags: HMW
LayerCount: 2
Back
Fore
SplineSet
251 515 m 1
 382 514 l 1
 279 208 l 1
 267 208 l 1
 213 393 l 1
 251 515 l 1
118 113 m 1
 0 514 l 1
 131 515 l 1
 188 327 l 2
 188 328 189 328 189 329 c 2
 252 111 l 1
 155 -182 l 1
 29 -182 l 1
 118 113 l 1
EndSplineSet
EndChar

StartChar: yen
Encoding: 165 165 227
GlifName: yen
Width: 542
VWidth: 0
GlyphClass: 2
Flags: HMW
LayerCount: 2
Back
Fore
SplineSet
73 698 m 1
 210 698 l 1
 273 485 l 1
 333 698 l 1
 470 698 l 1
 382 408 l 1
 492 408 l 1
 492 350 l 1
 365 350 l 1
 351 295 l 1
 492 295 l 1
 492 236 l 1
 340 236 l 1
 340 0 l 1
 203 0 l 1
 203 238 l 1
 50 238 l 1
 50 295 l 1
 193 295 l 1
 177 351 l 1
 50 351 l 1
 50 409 l 1
 162 409 l 1
 73 698 l 1
EndSplineSet
EndChar

StartChar: z
Encoding: 122 122 228
GlifName: z
Width: 348
VWidth: 0
GlyphClass: 2
Flags: HMW
LayerCount: 2
Back
Fore
SplineSet
322 400 m 1
 169 118 l 1
 322 117 l 1
 322 0 l 1
 26 0 l 1
 26 116 l 1
 183 394 l 1
 26 394 l 1
 26 514 l 1
 322 514 l 1
 322 400 l 1
EndSplineSet
EndChar

StartChar: zero
Encoding: 48 48 230
GlifName: zero
Width: 468
VWidth: 0
GlyphClass: 2
Flags: HMW
LayerCount: 2
Back
Fore
SplineSet
264 698 m 1
 353 693 447 602 447 353 c 0
 447 60 331 3 265 0 c 1
 265 124 l 1
 320 137 322 248 322 339 c 0
 322 360 322 371 322 398 c 0
 322 461 317 560 264 573 c 1
 264 698 l 1
204 698 m 1
 204 573 l 1
 151 560 146 461 146 398 c 0
 146 371 146 360 146 339 c 0
 146 248 148 137 203 124 c 1
 203 0 l 1
 137 3 21 60 21 353 c 0
 21 602 115 693 204 698 c 1
EndSplineSet
EndChar
